{"glyphs":{"0":{"ha":617,"x_min":0,"x_max":613,"o":"m 306 1235 q 397 1222 356 1235 q 479 1171 437 1210 q 549 1067 522 1133 q 595 887 577 1002 q 613 617 613 773 q 602 405 613 500 q 573 247 591 310 q 529 137 556 184 q 478 64 503 90 q 420 23 452 39 q 362 3 387 8 q 306 -2 336 -2 q 215 10 255 -2 q 133 60 176 22 q 63 164 91 99 q 18 343 35 228 q 0 617 0 458 q 19 877 0 764 q 66 1056 37 989 q 137 1164 96 1122 q 219 1220 179 1205 q 306 1235 259 1235 m 273 244 q 280 167 273 244 q 306 90 287 90 q 340 244 326 90 q 353 617 353 398 q 340 990 353 835 q 306 1145 326 1145 q 273 990 287 1145 q 259 617 259 835 q 273 244 259 398 z "},"1":{"ha":535,"x_min":-25,"x_max":515,"o":"m 477 93 q 515 0 477 22 l 211 0 q 223 6 216 2 q 242 34 230 11 q 253 91 253 57 q 253 927 253 128 q 137 909 196 901 q 77 926 105 914 q 32 953 49 938 q 1 981 14 968 q -19 1005 -12 995 l -25 1014 q 79 1092 28 1037 q 157 1191 131 1147 l 184 1235 l 515 1235 q 505 1230 511 1233 q 488 1211 498 1227 q 477 1174 477 1196 q 477 922 477 1170 q 477 407 477 674 q 477 93 477 140 z "},"2":{"ha":594,"x_min":8,"x_max":588,"o":"m 506 222 q 586 259 566 222 q 586 0 586 259 l 506 0 l 116 0 q 91 0 106 0 q 45 0 76 0 q 8 0 14 0 q 224 640 8 327 q 302 791 272 713 q 343 932 333 869 q 352 1049 353 995 q 341 1133 350 1102 q 319 1171 332 1165 q 275 1128 285 1188 q 281 1006 264 1068 q 242 833 321 864 q 133 823 177 807 q 67 880 90 840 q 48 980 45 920 q 80 1100 51 1040 q 163 1207 111 1167 q 306 1247 215 1247 q 444 1207 383 1247 q 535 1097 505 1167 q 572 941 566 1028 q 546 755 577 855 q 448 563 514 656 q 357 452 407 506 q 272 366 307 398 q 201 289 236 333 q 148 198 167 245 q 228 222 182 222 q 360 222 245 222 q 506 222 474 222 z "},"3":{"ha":577,"x_min":2,"x_max":574,"o":"m 387 790 q 517 669 460 756 q 574 460 574 582 q 559 271 574 352 q 511 123 545 190 q 414 23 477 57 q 264 -11 352 -11 q 123 22 181 -11 q 42 105 66 56 q 10 212 17 154 q 12 320 3 270 q 37 403 20 370 q 92 449 51 431 q 162 472 133 468 q 239 481 191 477 q 255 483 250 483 q 248 419 252 458 q 240 302 245 380 q 235 198 235 225 q 250 93 238 133 q 279 52 262 52 q 324 285 315 52 q 310 622 333 519 q 187 782 285 736 q 170 789 170 789 q 230 853 188 824 q 309 900 272 883 q 380 952 347 917 q 418 1037 412 988 q 338 1012 384 1012 q 238 1025 321 1012 q 123 1039 156 1039 q 43 1002 65 1039 l 43 1235 q 559 1235 535 1235 q 543 1083 559 1148 q 504 981 528 1019 q 457 914 480 943 q 414 855 434 886 q 387 790 394 824 z "},"4":{"ha":574,"x_min":-79,"x_max":576,"o":"m 539 76 q 548 29 539 48 q 565 5 557 11 q 576 0 573 0 l 316 0 q 316 437 316 330 l 247 437 l 137 437 l -14 437 q -3 441 -9 438 q 14 464 3 444 q 25 511 25 483 q 25 596 25 515 q 25 773 25 677 q 25 909 25 869 q 14 1062 25 994 q -12 1166 3 1130 q -42 1226 -26 1202 q -68 1258 -57 1250 l -77 1265 q -67 1271 -74 1267 q -39 1283 -60 1275 q 2 1296 -19 1292 q 52 1297 23 1299 q 108 1282 82 1295 q 214 1153 181 1247 q 247 892 247 1059 l 247 506 l 316 506 q 316 1235 316 1235 l 576 1235 q 565 1228 571 1233 q 549 1201 559 1224 q 539 1144 539 1177 q 539 840 539 1103 q 539 329 539 577 q 539 76 539 80 z "},"5":{"ha":535,"x_min":-19,"x_max":554,"o":"m 111 863 q 206 889 156 886 q 305 875 256 892 q 398 822 353 858 q 477 735 443 785 q 532 612 511 684 q 552 460 552 540 q 538 271 552 352 q 489 123 523 190 q 394 23 455 57 q 242 -11 332 -11 q 102 22 159 -11 q 21 105 45 56 q -11 212 -3 154 q -10 320 -19 270 q 15 403 -2 370 q 71 449 31 431 q 140 472 111 468 q 219 481 170 477 q 233 483 228 483 q 228 419 231 458 q 218 302 224 380 q 215 198 213 225 q 229 93 216 133 q 259 52 242 52 q 300 171 282 52 q 317 432 318 289 q 295 639 316 576 q 257 705 279 679 q 211 738 235 731 q 164 739 187 745 q 127 710 142 733 q 108 653 111 687 q 76 660 94 653 q 46 674 57 667 l 35 682 l 35 1235 q 508 1235 508 1235 l 508 975 q 500 985 505 978 q 475 1002 495 991 q 427 1012 454 1012 q 302 1012 395 1012 q 193 1012 208 1012 q 113 1037 145 1012 q 111 863 113 974 z "},"6":{"ha":588,"x_min":-2,"x_max":594,"o":"m -2 559 q 8 735 -2 647 q 41 918 17 824 q 100 1083 65 1012 q 194 1201 136 1154 q 324 1247 252 1247 q 511 1167 461 1247 q 536 1063 540 1110 q 496 988 532 1015 q 407 969 460 960 q 327 1071 327 981 q 329 1094 327 1079 q 334 1123 332 1110 q 336 1152 336 1137 q 329 1174 336 1167 q 309 1182 323 1182 q 281 1140 293 1182 q 262 1031 269 1097 q 253 915 256 965 q 250 823 250 866 q 305 861 270 849 q 367 869 340 873 q 491 790 438 856 q 568 632 543 724 q 593 440 593 540 q 574 285 593 363 q 521 141 556 208 q 427 32 486 74 q 296 -11 369 -11 q 154 29 213 -11 q 62 147 96 69 q 13 326 28 225 q -2 559 -2 426 m 285 82 q 323 116 307 31 q 336 241 332 167 q 318 664 353 537 q 279 701 307 702 q 242 657 252 701 q 247 304 227 480 q 285 82 267 128 z "},"7":{"ha":515,"x_min":0,"x_max":517,"o":"m 323 617 q 255 431 278 526 q 235 261 233 336 q 241 147 236 185 q 252 80 245 108 q 269 32 259 52 q 285 6 279 12 l 293 0 l 86 0 q 78 2 83 0 q 58 10 73 3 q 32 28 43 17 q 11 62 20 39 q 2 114 2 85 q 20 323 2 225 q 69 492 39 420 q 135 625 99 563 q 212 739 171 687 q 289 838 253 792 q 355 936 324 884 q 400 1039 386 988 q 321 1014 367 1014 q 208 1014 304 1014 q 79 1014 111 1014 q 33 1005 52 1014 q 6 986 14 995 l 0 977 l 0 1235 q 517 1235 495 1235 q 514 1133 517 1179 q 499 1039 511 1086 q 481 961 488 991 q 451 880 474 932 q 417 805 427 827 q 371 715 406 782 q 323 617 336 647 z "},"8":{"ha":639,"x_min":14,"x_max":628,"o":"m 466 824 q 628 423 628 733 q 607 240 628 319 q 555 114 586 160 q 481 39 523 68 q 400 -1 438 9 q 321 -11 361 -11 q 208 10 259 -11 q 112 77 157 31 q 41 212 66 123 q 15 423 15 301 q 182 819 15 721 q 99 1005 99 881 q 162 1184 99 1123 q 321 1244 225 1244 q 483 1184 423 1244 q 543 1005 543 1125 q 466 824 543 884 m 321 1168 q 292 1005 292 1168 q 299 896 292 924 q 321 867 306 867 q 346 896 338 867 q 353 1005 353 924 q 321 1168 353 1168 m 289 182 q 296 132 289 182 q 322 82 302 82 q 355 182 341 82 q 369 424 369 282 q 355 665 369 565 q 322 765 341 765 q 289 665 302 765 q 275 424 275 565 q 289 182 275 282 z "},"9":{"ha":576,"x_min":-11,"x_max":585,"o":"m 583 677 q 574 500 583 590 q 541 317 565 410 q 481 152 517 224 q 388 35 446 80 q 259 -11 330 -11 q 73 69 120 -11 q 46 172 43 125 q 86 247 49 219 q 176 267 123 275 q 256 164 256 253 q 253 141 256 157 q 248 111 250 125 q 247 83 247 97 q 254 61 247 69 q 275 52 261 52 q 302 95 290 52 q 319 204 313 137 q 329 320 326 270 q 333 414 332 370 q 278 373 312 386 q 216 366 244 361 q 93 445 145 378 q 15 604 40 512 q -11 796 -11 696 q 8 949 -11 872 q 62 1094 26 1026 q 156 1204 97 1162 q 287 1247 215 1247 q 429 1206 370 1247 q 521 1087 488 1165 q 569 910 554 1009 q 583 677 583 810 m 296 1153 q 261 1119 276 1204 q 247 994 252 1069 q 264 571 228 698 q 303 534 275 532 q 340 577 332 535 q 336 931 356 755 q 296 1153 316 1106 z "},">":{"ha":509,"x_min":46,"x_max":417,"o":"m 46 0 l 46 926 l 417 926 l 417 0 l 46 0 m 93 46 l 370 46 l 370 880 l 93 880 l 93 46 z "}," ":{"ha":341,"x_min":0,"x_max":0,"o":""},"!":{"ha":364,"x_min":22,"x_max":318,"o":"m 77 31 q 58 50 77 31 q 39 124 39 69 q 77 218 39 179 q 171 256 116 256 q 264 218 225 256 q 302 124 302 179 q 264 31 302 69 q 171 -8 225 -8 q 77 31 116 -8 m 318 1235 q 308 1228 313 1233 q 292 1201 302 1222 q 282 1154 282 1181 l 282 381 l 187 381 q 174 383 182 381 q 143 394 165 384 q 104 416 120 403 q 74 456 88 429 q 60 519 60 483 q 60 828 60 534 q 60 1154 60 1122 q 51 1201 60 1181 q 32 1228 42 1221 l 23 1235 l 318 1235 z "},"\"":{"ha":741,"x_min":0,"x_max":728,"o":"m 711 1282 q 725 1258 724 1265 q 716 1233 727 1250 q 644 1232 674 1262 q 613 1136 613 1202 q 583 987 613 1028 q 488 934 554 946 q 409 934 451 926 q 344 954 367 943 l 319 966 q 335 975 326 969 q 360 1011 344 981 q 375 1077 375 1040 q 392 1236 375 1184 q 323 1231 352 1261 q 293 1136 293 1201 q 263 987 293 1028 q 167 934 233 946 q 90 934 131 926 q 23 954 48 943 l 0 966 q 15 975 6 969 q 40 1011 25 981 q 56 1077 56 1040 q 72 1235 56 1179 q 136 1326 88 1292 q 279 1356 202 1370 q 390 1282 355 1343 q 403 1264 401 1270 q 455 1326 421 1301 q 599 1356 523 1370 q 711 1282 674 1343 z "},"#":{"ha":147,"x_min":0,"x_max":0,"o":""},"$":{"ha":147,"x_min":0,"x_max":0,"o":""},"%":{"ha":147,"x_min":0,"x_max":0,"o":""},"&":{"ha":147,"x_min":0,"x_max":0,"o":""},"'":{"ha":361,"x_min":28,"x_max":330,"o":"m 88 940 q 103 951 94 944 q 132 981 113 958 q 157 1025 151 1003 q 154 1058 164 1046 q 116 1076 145 1069 q 50 1127 73 1085 q 42 1218 28 1170 q 106 1299 59 1275 q 206 1310 154 1323 q 290 1256 258 1298 q 323 1176 315 1224 q 311 1074 330 1128 q 244 983 292 1020 q 184 945 219 963 q 127 918 150 927 l 105 910 l 88 940 z "},"(":{"ha":466,"x_min":23,"x_max":461,"o":"m 461 1239 q 414 1220 437 1239 q 367 1154 390 1201 q 324 1039 343 1108 q 294 861 306 971 q 282 616 282 752 q 294 368 282 478 q 323 189 306 258 q 363 75 340 120 q 410 11 387 29 q 458 -8 434 -8 l 458 -25 q 327 -4 389 -25 q 208 65 265 17 q 111 185 151 113 q 47 368 71 258 q 23 616 23 478 q 51 886 23 769 q 123 1071 79 1003 q 227 1182 167 1139 q 343 1241 287 1225 q 461 1256 400 1256 l 461 1239 z "},")":{"ha":465,"x_min":0,"x_max":440,"o":"m 2 1239 q 49 1220 25 1239 q 96 1154 73 1201 q 139 1039 120 1108 q 168 861 157 971 q 179 616 179 752 q 168 368 179 478 q 140 189 157 258 q 99 75 122 120 q 52 11 76 29 q 5 -8 28 -8 l 5 -25 q 136 -4 74 -25 q 254 65 198 17 q 351 185 310 113 q 416 368 392 258 q 440 616 440 478 q 411 886 440 769 q 340 1071 383 1003 q 236 1182 296 1139 q 120 1241 176 1225 q 2 1256 63 1256 l 2 1239 z "},"*":{"ha":758,"x_min":-3,"x_max":755,"o":"m 713 687 q 745 644 735 665 q 753 613 755 623 l 753 602 q 734 606 745 605 q 682 594 722 606 q 599 549 642 582 q 519 509 559 520 q 628 329 602 460 q 632 302 628 323 q 638 271 636 281 q 645 242 640 261 q 655 213 650 224 q 667 190 660 202 q 684 171 674 177 q 704 162 693 164 q 632 157 682 160 q 574 153 582 153 q 497 192 529 160 q 446 304 465 224 q 375 448 424 403 q 304 304 327 403 q 255 192 287 224 q 177 151 222 160 q 48 162 116 156 q 68 171 59 164 q 84 190 77 177 q 96 212 91 202 q 105 242 100 222 q 112 271 110 261 q 118 302 114 281 q 123 327 122 323 q 233 509 150 460 q 154 549 194 522 q 0 602 60 617 q 0 613 2 605 q 8 644 -2 622 q 40 687 19 665 q 86 715 60 704 q 156 721 111 725 q 248 691 201 718 q 302 645 270 679 q 296 730 298 684 q 313 866 293 829 q 378 915 332 903 q 497 886 434 931 q 486 877 492 883 q 470 844 480 870 q 461 784 460 818 q 457 651 465 698 q 505 691 485 679 q 597 721 552 718 q 667 715 642 725 q 713 687 693 704 z "},"+":{"ha":918,"x_min":62,"x_max":858,"o":"m 798 523 q 833 536 818 526 q 852 554 847 546 l 858 562 l 858 261 q 798 299 841 293 q 571 299 798 299 q 571 74 571 74 q 584 39 574 54 q 602 19 594 25 l 610 14 l 309 14 q 347 74 343 29 q 347 299 347 74 q 122 299 122 299 q 87 288 102 298 q 66 270 73 278 l 62 261 l 62 562 q 122 523 77 529 q 347 523 122 523 q 347 750 347 750 q 309 810 343 793 l 610 810 q 571 750 577 793 q 571 523 571 750 q 798 523 798 523 z "},",":{"ha":349,"x_min":15,"x_max":318,"o":"m 76 -125 q 91 -113 82 -120 q 120 -84 100 -106 q 145 -40 139 -62 q 142 -7 151 -19 q 103 11 133 5 q 38 63 60 20 q 29 153 15 105 q 94 234 46 210 q 194 245 142 258 q 278 191 245 233 q 310 111 302 159 q 299 9 318 63 q 231 -82 279 -45 q 172 -120 207 -102 q 114 -147 137 -137 l 93 -154 l 76 -125 z "},"-":{"ha":918,"x_min":62,"x_max":858,"o":"m 798 523 q 833 536 818 526 q 852 554 847 546 l 858 562 l 858 261 q 798 299 841 293 q 460 299 798 299 q 122 299 122 299 q 87 288 102 298 q 66 270 73 278 l 62 261 l 62 562 q 122 523 77 529 q 460 523 122 523 q 798 523 798 523 z "},".":{"ha":313,"x_min":25,"x_max":289,"o":"m 63 31 q 44 50 63 31 q 25 124 25 69 q 63 218 25 179 q 157 256 102 256 q 250 218 211 256 q 289 124 289 179 q 250 31 289 69 q 157 -8 211 -8 q 63 31 102 -8 z "},"/":{"ha":522,"x_min":0,"x_max":512,"o":"m 460 1173 q 273 -2 273 -2 l 0 -2 q 12 6 5 2 q 35 35 20 11 q 57 91 51 59 q 114 426 66 140 q 205 974 162 711 l 248 1235 l 511 1235 q 461 1174 475 1219 q 460 1174 460 1174 q 460 1173 460 1173 z "},":":{"ha":360,"x_min":39,"x_max":304,"o":"m 79 620 q 59 640 79 620 q 40 714 40 659 q 79 807 40 769 q 171 846 117 846 q 264 807 225 846 q 302 714 302 769 q 264 620 302 659 q 171 582 225 582 q 79 620 117 582 m 79 28 q 59 47 79 28 q 40 121 40 66 q 79 215 40 176 q 171 253 117 253 q 264 215 225 253 q 302 121 302 176 q 264 28 302 66 q 171 -11 225 -11 q 79 28 117 -11 z "},";":{"ha":369,"x_min":26,"x_max":330,"o":"m 86 -125 q 103 -113 93 -120 q 132 -84 113 -106 q 157 -40 151 -62 q 154 -7 162 -19 q 116 11 145 5 q 49 63 71 20 q 42 153 28 105 q 106 234 59 210 q 204 245 153 258 q 289 191 256 233 q 322 111 315 159 q 310 9 329 63 q 244 -82 292 -45 q 184 -120 219 -102 q 127 -147 148 -137 l 103 -154 l 86 -125 m 83 620 q 64 640 83 620 q 45 714 45 659 q 83 807 45 769 q 176 846 122 846 q 269 807 230 846 q 307 714 307 769 q 269 620 307 659 q 176 582 230 582 q 83 620 122 582 z "},"=":{"ha":918,"x_min":62,"x_max":858,"o":"m 798 785 q 833 798 818 789 q 852 815 847 807 l 858 824 l 858 523 q 798 562 841 556 q 460 562 798 562 q 122 562 122 562 q 87 549 102 559 q 66 531 73 540 l 62 523 l 62 824 q 122 785 77 792 q 460 785 122 785 q 798 785 798 785 m 798 426 q 858 465 841 432 l 858 164 q 798 202 841 196 q 460 202 798 202 q 122 202 122 202 q 87 190 102 199 q 66 173 73 181 l 62 164 l 62 465 q 122 426 77 432 q 460 426 122 426 q 798 426 798 426 z "},"?":{"ha":310,"x_min":-106,"x_max":452,"o":"m 49 39 q 30 58 49 39 q 11 132 11 77 q 49 225 11 187 q 143 264 88 264 q 236 225 198 264 q 275 132 275 187 q 236 39 275 77 q 143 0 198 0 q 49 39 88 0 m 167 1247 q 292 1218 235 1247 q 383 1139 349 1188 q 434 1030 417 1090 q 445 906 451 971 q 414 784 440 841 q 348 682 389 731 q 274 601 307 633 q 211 523 241 569 q 170 423 181 477 q 180 387 170 403 q 201 366 190 370 l 210 360 l 164 360 l 94 360 l 62 360 q 61 424 62 369 q 61 500 60 478 q 69 563 62 522 q 93 637 77 605 q 154 745 110 674 q 210 856 199 815 q 224 1059 236 969 q 181 1171 211 1148 q 137 1130 150 1194 q 142 1006 125 1065 q 103 833 179 870 q -11 816 35 799 q -82 873 -57 832 q -105 978 -106 915 q -74 1100 -103 1040 q 167 1247 -5 1247 z "},"A":{"ha":802,"x_min":-9,"x_max":804,"o":"m 756 93 q 802 0 767 17 l 614 0 q 548 26 576 0 q 517 91 520 52 q 515 93 517 91 q 485 353 515 102 l 326 353 q 318 296 319 307 q 245 69 295 139 q 106 0 194 0 q 19 43 48 0 q 2 137 -9 86 q 51 211 12 188 q 182 185 128 253 q 188 177 188 177 q 195 180 191 179 q 207 192 199 181 q 218 224 215 204 q 356 1142 253 434 q 321 1235 364 1218 l 653 1235 q 644 1228 650 1233 q 633 1198 639 1224 q 631 1136 627 1173 q 693 624 636 1097 q 756 93 750 151 m 340 443 l 474 443 q 412 948 451 631 q 340 443 363 605 z "},"B":{"ha":582,"x_min":0,"x_max":613,"o":"m 452 710 q 577 259 611 590 q 556 162 571 205 q 507 80 540 119 q 415 21 474 42 q 275 0 356 0 l 0 0 q 12 6 5 2 q 30 35 19 11 q 42 93 42 59 q 42 1144 42 327 q 31 1200 42 1177 q 11 1228 20 1222 l 0 1235 l 270 1235 q 409 1218 353 1235 q 495 1165 465 1201 q 537 1087 525 1130 q 554 981 549 1045 q 533 808 562 878 q 452 710 505 738 m 312 1074 q 284 1139 306 1131 q 269 1125 273 1142 q 264 1086 264 1111 q 264 762 264 781 q 293 779 279 756 q 318 872 307 802 q 312 1074 329 941 m 324 140 q 346 417 349 302 q 319 592 343 531 q 264 647 296 653 l 264 131 q 287 77 264 76 q 323 130 310 80 q 324 140 324 136 z "},"C":{"ha":576,"x_min":0,"x_max":579,"o":"m 335 440 q 458 437 390 449 q 551 398 526 424 q 575 326 573 377 q 565 222 577 276 q 525 115 552 168 q 463 32 498 62 q 302 -11 410 -11 q 302 -11 302 -11 q 301 -11 302 -11 q 178 23 231 -11 q 92 114 125 57 q 38 255 59 171 q 8 427 17 338 q 0 625 0 517 q 79 1079 0 914 q 310 1245 159 1245 q 441 1205 394 1245 q 519 1099 489 1165 q 548 978 545 1039 q 530 879 551 918 q 468 823 509 840 q 367 832 427 806 q 332 1005 295 863 q 332 1144 350 1074 q 296 1170 318 1191 q 258 608 258 1131 q 261 412 258 503 q 269 255 264 321 q 282 144 275 190 q 297 79 289 99 q 313 62 306 59 q 325 81 318 65 q 340 134 332 97 q 349 218 347 171 q 349 336 352 281 q 340 417 346 392 l 335 440 z "},"D":{"ha":574,"x_min":0,"x_max":562,"o":"m 560 782 q 560 410 560 782 q 275 -2 560 -2 q 0 -2 275 -2 q 12 5 5 0 q 30 34 19 11 q 42 91 42 57 q 42 1144 42 327 q 0 1235 40 1216 l 270 1235 q 412 1198 353 1235 q 502 1094 471 1160 q 546 951 532 1028 q 560 782 560 875 m 324 170 l 324 1048 q 295 1144 324 1110 q 265 1134 272 1167 q 264 1113 264 1125 q 264 617 264 1106 q 264 116 264 127 q 281 77 264 76 q 316 123 301 79 q 324 170 324 148 z "},"E":{"ha":593,"x_min":0,"x_max":594,"o":"m 523 270 q 563 168 545 236 q 586 49 580 100 l 594 0 l 264 0 l 148 0 l 142 0 q 0 0 142 0 q 5 2 2 0 q 15 11 8 3 q 27 30 22 19 q 37 63 32 42 q 42 113 42 85 l 42 1148 q 31 1201 42 1179 q 11 1228 20 1222 l 0 1235 l 594 1235 q 523 965 566 1026 l 372 965 q 362 1042 372 997 q 326 1130 352 1088 q 264 1173 299 1173 q 264 1049 264 1162 q 264 811 264 937 q 264 656 264 685 q 326 656 318 656 q 340 658 333 656 q 352 664 347 660 q 362 673 356 667 q 371 683 367 679 q 379 696 375 687 q 384 710 383 705 q 389 725 386 715 q 394 740 392 736 q 397 755 395 744 q 401 767 400 765 l 461 759 q 450 632 449 702 q 461 512 451 562 l 400 505 q 392 532 394 525 q 383 556 390 539 q 370 581 377 574 q 351 595 363 588 q 326 602 340 602 l 264 602 q 264 435 264 568 q 264 188 264 302 q 264 62 264 73 q 326 104 299 62 q 362 192 352 147 q 372 270 372 238 l 523 270 z "},"F":{"ha":534,"x_min":0,"x_max":613,"o":"m 370 965 q 367 1022 370 994 q 355 1088 364 1049 q 322 1150 346 1127 q 262 1173 298 1173 l 262 656 q 313 656 264 656 q 326 658 319 656 q 339 664 333 660 q 350 673 344 667 q 358 683 355 679 q 366 696 361 687 q 372 710 370 705 q 377 725 373 715 q 381 740 380 736 q 385 755 383 744 q 387 767 387 765 l 449 759 q 437 632 437 702 q 449 512 437 562 l 387 505 q 380 532 381 525 q 371 556 378 539 q 357 581 364 574 q 339 595 350 588 q 312 602 327 602 q 262 602 312 602 l 262 93 q 272 37 262 60 q 292 6 281 14 l 301 0 l 0 0 q 11 7 5 2 q 29 36 17 12 q 40 93 40 60 q 40 394 40 131 q 40 907 40 657 q 40 1160 40 1156 q 30 1204 40 1185 q 9 1228 20 1222 l 0 1235 l 611 1235 q 593 1207 603 1225 q 563 1119 582 1188 q 540 965 543 1049 l 370 965 z "},"G":{"ha":576,"x_min":-22,"x_max":608,"o":"m 549 148 q 564 64 549 99 q 594 19 579 29 l 608 8 q 600 4 605 6 q 576 -3 594 2 q 540 -10 559 -8 q 495 -12 522 -12 q 444 -6 469 -11 q 406 8 424 -2 q 282 -12 361 -12 q 281 -12 282 -12 q 281 -12 281 -12 q 157 22 211 -12 q 70 113 103 56 q 16 253 37 170 q -13 427 -5 336 q -22 625 -22 517 q 59 1079 -22 914 q 289 1245 139 1245 q 421 1206 373 1245 q 498 1100 469 1167 q 528 978 525 1039 q 510 879 531 918 q 448 823 489 840 q 347 832 407 806 q 312 1005 275 863 q 310 1145 330 1074 q 276 1170 298 1193 q 238 608 238 1131 q 241 411 238 503 q 249 255 244 319 q 262 144 255 190 q 276 77 269 97 q 293 60 284 57 q 296 63 293 60 q 301 66 299 65 q 306 71 302 66 q 313 81 310 76 q 318 97 315 86 q 323 121 321 108 q 326 154 324 134 q 327 196 327 173 q 327 397 324 255 q 320 511 330 483 q 267 539 310 539 q 267 565 267 545 q 267 594 267 585 q 323 596 285 594 q 387 600 361 599 q 447 597 414 600 q 501 586 480 594 q 535 559 522 577 q 549 515 549 542 q 549 353 549 497 q 549 148 548 210 z "},"H":{"ha":593,"x_min":0,"x_max":594,"o":"m 559 93 q 594 0 560 17 l 336 0 l 336 577 l 261 577 l 261 0 l 0 0 q 11 6 5 2 q 27 34 17 11 q 37 93 37 57 q 37 394 37 131 q 37 907 37 657 q 37 1160 37 1156 q 0 1235 37 1222 l 261 1235 l 261 656 l 336 656 l 336 1235 l 594 1235 q 584 1228 590 1233 q 569 1198 579 1224 q 559 1136 559 1173 l 559 93 z "},"I":{"ha":301,"x_min":0,"x_max":302,"o":"m 262 93 q 301 0 262 22 l 0 0 q 11 7 5 2 q 28 36 17 12 q 39 93 39 60 l 39 1173 q 39 1174 39 1173 q 26 1209 35 1194 q 8 1230 17 1224 l 0 1235 l 301 1235 q 262 1174 269 1219 q 262 1173 262 1173 l 262 93 z "},"J":{"ha":573,"x_min":-3,"x_max":574,"o":"m 261 1235 l 574 1235 q 563 1229 569 1233 q 546 1210 557 1225 q 535 1173 535 1194 l 535 344 q 465 69 535 151 q 265 -14 394 -14 q 46 68 113 -14 q -1 199 0 125 q 40 323 -2 273 q 151 364 82 372 q 218 331 196 360 q 239 262 239 302 q 231 198 239 259 q 225 94 222 137 q 250 51 227 51 q 272 61 262 51 q 286 90 281 71 q 295 128 292 110 q 299 177 298 147 q 301 225 301 207 q 301 274 301 242 q 301 313 301 306 q 300 500 301 386 q 299 727 299 614 q 299 941 299 840 q 299 1106 299 1042 q 298 1173 298 1171 q 289 1208 298 1193 q 270 1230 279 1224 l 261 1235 z "},"K":{"ha":586,"x_min":0,"x_max":588,"o":"m 548 356 q 546 263 548 323 q 544 167 545 204 q 546 90 543 131 q 559 28 549 49 q 586 0 569 6 q 515 -23 560 -19 q 427 -12 471 -28 q 334 96 355 19 q 321 341 313 173 q 324 481 327 424 q 316 573 321 539 q 300 626 310 608 q 280 648 290 644 q 259 650 270 653 q 259 0 259 0 l 0 0 q 11 6 5 2 q 27 34 17 11 q 37 91 37 57 q 37 394 37 131 q 37 905 37 656 q 37 1159 37 1154 q 0 1235 35 1219 l 259 1235 q 259 755 259 890 q 314 866 301 790 q 321 1009 327 941 q 324 1125 315 1076 q 354 1199 333 1174 q 394 1235 375 1224 q 437 1250 414 1245 q 485 1250 463 1253 q 522 1238 506 1247 q 547 1219 537 1228 q 562 1202 557 1210 l 566 1196 q 550 1186 559 1194 q 527 1130 542 1177 q 534 981 512 1082 q 514 839 548 897 q 412 752 480 781 q 517 644 486 730 q 548 356 548 559 z "},"L":{"ha":588,"x_min":0,"x_max":613,"o":"m 611 0 l 0 0 q 11 6 5 2 q 29 30 17 11 q 40 74 40 49 q 40 328 40 79 q 40 840 40 577 q 40 1142 40 1102 q 0 1235 39 1213 l 301 1235 q 290 1228 296 1233 q 273 1198 284 1222 q 262 1142 262 1174 l 262 62 q 322 85 298 62 q 355 147 346 108 q 367 213 364 185 q 370 270 370 241 l 540 270 q 561 118 543 185 q 596 25 579 51 l 611 0 z "},"M":{"ha":944,"x_min":-28,"x_max":946,"o":"m 623 0 q 635 8 628 3 q 653 38 642 14 q 659 93 664 62 q 583 813 657 110 q 502 0 502 0 l 492 0 l 282 0 l 194 813 q 125 116 128 151 q 126 66 122 88 q 137 33 130 45 q 150 13 144 22 q 164 3 157 5 l 168 0 l -28 0 q -22 2 -26 0 q -10 13 -19 5 q 6 33 -2 22 q 21 66 14 45 q 31 116 28 88 q 60 417 35 167 q 108 900 85 668 q 131 1140 131 1133 q 94 1233 137 1216 l 424 1233 q 416 1227 421 1231 q 404 1197 410 1222 q 401 1134 397 1171 q 463 548 463 548 q 522 1140 520 1128 q 483 1233 526 1216 l 813 1233 q 805 1227 810 1231 q 792 1197 799 1222 q 790 1133 785 1171 q 844 623 795 1096 q 900 93 894 151 q 944 0 909 17 l 623 0 z "},"N":{"ha":617,"x_min":0,"x_max":616,"o":"m 580 1142 q 580 99 580 1142 q 589 37 580 62 q 606 6 597 12 l 616 0 l 358 0 l 358 2 l 358 383 l 261 887 l 261 0 l 0 0 q 11 5 5 2 q 27 26 17 8 q 37 74 37 45 q 37 328 37 79 q 37 840 37 577 q 37 1142 37 1102 q 28 1201 37 1177 q 9 1228 19 1224 l 0 1235 l 261 1235 l 261 1230 l 358 682 q 358 1235 358 1235 l 616 1235 q 606 1228 611 1233 q 590 1201 600 1224 q 580 1142 580 1177 z "},"O":{"ha":611,"x_min":0,"x_max":613,"o":"m 306 1258 q 397 1245 356 1258 q 478 1191 437 1231 q 548 1084 520 1151 q 594 898 576 1017 q 613 617 613 779 q 601 399 613 497 q 573 235 590 301 q 529 121 556 170 q 478 46 503 73 q 420 2 452 19 q 362 -19 387 -14 q 306 -23 336 -23 q 215 -11 255 -23 q 133 41 176 2 q 63 147 91 80 q 18 334 35 215 q 0 617 0 454 q 19 887 0 770 q 66 1072 37 1003 q 137 1184 96 1140 q 219 1242 179 1227 q 306 1258 259 1258 m 273 231 q 280 151 273 231 q 306 71 287 71 q 340 231 326 71 q 353 617 353 390 q 340 1004 353 844 q 306 1164 326 1164 q 273 1004 287 1164 q 259 617 259 844 q 273 231 259 390 z "},"P":{"ha":577,"x_min":0,"x_max":583,"o":"m 275 1235 q 394 1211 341 1235 q 480 1150 448 1187 q 535 1063 512 1114 q 566 965 557 1012 q 577 866 576 917 q 562 664 582 762 q 496 496 542 566 q 389 417 451 426 q 264 455 310 404 q 263 282 264 452 q 262 93 262 111 q 272 37 262 60 q 290 6 281 14 l 301 0 l 0 0 q 12 6 5 2 q 30 33 19 11 q 42 85 42 56 q 42 587 42 86 q 42 1142 42 1088 q 31 1199 42 1176 q 11 1228 20 1222 l 0 1235 l 275 1235 m 264 528 q 299 546 282 520 q 329 623 316 571 q 346 745 341 676 q 347 901 352 813 q 327 1077 343 989 q 292 1139 318 1130 q 265 1116 273 1147 q 264 1086 264 1103 l 264 528 z "},"Q":{"ha":645,"x_min":-19,"x_max":677,"o":"m 619 83 q 633 28 619 51 q 662 -3 648 5 l 676 -9 q 667 -12 673 -11 q 644 -19 662 -14 q 608 -25 627 -23 q 563 -25 590 -26 q 514 -19 537 -25 q 434 20 463 -6 q 289 -26 375 -26 q 198 -14 238 -26 q 115 38 157 -2 q 46 145 73 77 q 1 332 19 213 q -17 614 -17 451 q 2 885 -17 769 q 49 1070 20 1002 q 120 1182 79 1139 q 202 1240 162 1225 q 289 1255 242 1255 q 379 1242 340 1255 q 461 1190 418 1230 q 531 1082 503 1150 q 576 895 559 1014 q 594 614 594 776 q 569 295 594 427 q 619 83 617 208 m 322 1002 q 315 1082 322 1002 q 289 1162 309 1162 q 255 1002 269 1162 q 242 614 242 841 q 247 366 242 483 q 250 367 250 367 q 332 401 276 394 q 335 614 335 503 q 322 1002 335 841 m 289 68 q 327 296 313 68 q 248 340 287 352 q 289 68 262 68 z "},"R":{"ha":611,"x_min":6,"x_max":620,"o":"m 48 74 q 28 15 48 35 q 6 0 6 0 l 231 0 l 307 0 q 296 7 302 2 q 279 36 290 12 q 269 93 269 60 q 270 443 269 108 q 327 292 333 404 q 330 96 319 164 q 371 -1 341 28 q 463 -40 401 -29 q 548 -41 509 -49 q 603 -20 586 -32 l 619 -8 q 603 5 613 -3 q 576 46 593 14 q 560 116 560 77 q 549 316 565 242 q 478 429 534 389 q 404 474 446 452 q 543 603 495 492 q 583 866 591 713 q 573 965 582 917 q 541 1063 563 1012 q 486 1150 519 1113 q 401 1211 454 1187 q 281 1235 349 1235 l 6 1235 q 18 1228 11 1233 q 36 1199 25 1222 q 48 1142 48 1176 q 48 582 48 1088 q 48 74 48 76 m 330 1045 q 353 784 356 890 q 326 623 349 677 q 270 582 302 569 l 270 1140 q 307 1118 293 1140 q 330 1045 321 1096 z "},"S":{"ha":546,"x_min":-17,"x_max":556,"o":"m 284 785 q 556 420 556 785 q 488 96 556 202 q 245 -11 420 -11 q 105 23 162 -11 q 23 107 48 57 q -8 215 -2 157 q -7 323 -15 273 q 19 406 2 373 q 32 425 23 417 q 48 440 40 434 q 69 452 56 446 q 90 462 82 458 q 116 470 99 466 q 140 475 133 474 q 167 479 148 477 q 191 482 185 481 q 215 485 196 483 q 236 488 235 488 q 230 422 233 461 q 221 305 227 383 q 216 201 216 227 q 231 94 219 134 q 261 54 244 54 q 293 123 276 54 q 320 292 310 193 q 332 492 330 392 q 316 660 333 591 q 262 730 299 730 q 245 728 262 730 q 213 727 227 727 q 175 731 199 727 q 133 745 151 736 q 93 774 114 755 q 59 820 73 793 q 35 890 45 847 q 26 989 26 934 q 107 1174 26 1102 q 290 1244 188 1245 q 478 1148 412 1242 q 519 1028 520 1082 q 482 938 517 974 q 397 904 448 903 q 304 952 350 904 q 273 1181 321 1181 q 247 1145 253 1181 q 242 1029 241 1110 q 243 985 244 1014 q 244 922 242 957 q 248 856 245 887 q 259 806 250 826 q 284 785 269 785 z "},"T":{"ha":515,"x_min":-117,"x_max":631,"o":"m 177 1235 l 630 1235 q 628 1177 630 1213 q 610 1059 627 1140 q 565 932 594 978 l 452 932 q 452 966 452 935 q 451 1009 452 997 q 449 1050 451 1022 q 441 1093 448 1079 q 427 1124 435 1106 q 404 1150 418 1142 q 369 1157 389 1157 l 369 93 q 380 34 369 59 q 407 0 390 9 l 108 0 l 106 0 q 134 34 123 8 q 145 93 145 59 l 145 1157 q 144 1157 144 1157 q 109 1150 123 1157 q 86 1124 94 1142 q 71 1093 77 1106 q 63 1050 65 1079 q 61 1009 62 1022 q 61 966 60 997 q 62 932 62 935 l -52 932 q -117 1235 -114 1037 l -57 1235 l 177 1235 z "},"U":{"ha":596,"x_min":0,"x_max":596,"o":"m 34 1142 q 25 1200 34 1177 q 9 1228 17 1222 l 0 1235 l 258 1235 l 258 202 q 257 189 258 201 q 258 158 256 177 q 264 121 261 139 q 276 91 267 103 q 298 79 285 79 q 326 110 316 79 q 335 171 335 140 l 335 202 l 335 1230 l 335 1235 l 594 1235 q 584 1228 591 1233 q 567 1201 577 1224 q 557 1142 557 1177 q 557 870 557 1102 q 557 421 557 639 q 557 199 557 204 q 556 167 557 181 q 550 131 556 154 q 535 93 545 108 q 507 58 526 77 q 461 27 488 39 q 393 7 435 15 q 297 -2 350 -2 q 202 6 244 -2 q 133 25 160 14 q 86 53 105 35 q 57 87 66 71 q 42 127 48 103 q 35 165 37 150 q 34 204 34 181 l 34 1142 z "},"V":{"ha":596,"x_min":0,"x_max":585,"o":"m 196 1235 q 191 1231 194 1233 q 178 1221 187 1230 q 164 1201 170 1213 q 154 1168 157 1190 q 153 1119 150 1147 q 222 420 157 1069 q 298 1142 296 1125 q 293 1196 302 1173 q 273 1227 284 1219 l 262 1235 l 583 1235 q 574 1228 580 1233 q 556 1201 568 1224 q 539 1142 543 1177 q 483 610 532 1083 q 429 100 434 137 q 431 37 424 62 q 444 6 437 12 l 452 0 l 264 0 l 177 0 l 122 0 q 127 2 123 0 q 137 9 130 3 q 150 25 145 15 q 159 52 156 34 q 160 93 162 71 q 136 333 159 99 q 88 817 113 566 q 59 1119 63 1068 q 39 1191 54 1162 q 12 1227 25 1221 l 0 1235 l 196 1235 z "},"W":{"ha":850,"x_min":-68,"x_max":906,"o":"m 583 1233 q 595 1225 588 1231 q 613 1195 602 1219 q 619 1140 623 1171 q 543 420 617 1125 q 461 1233 461 1233 l 452 1233 l 242 1233 l 154 420 q 85 1119 88 1083 q 86 1167 82 1145 q 96 1201 90 1188 q 110 1221 103 1213 q 123 1231 117 1228 l 128 1233 l -68 1233 q -62 1231 -66 1233 q -50 1221 -59 1230 q -34 1201 -42 1213 q -19 1167 -26 1190 q -9 1117 -12 1145 q 20 816 -5 1066 q 68 333 45 565 q 91 93 91 100 q 54 0 97 17 l 384 0 q 376 6 381 2 q 363 36 370 11 q 361 99 356 62 q 423 687 423 687 q 481 93 480 106 q 480 52 483 71 q 471 25 477 34 q 458 9 465 15 q 448 2 452 3 l 443 0 l 773 0 q 765 6 770 2 q 752 36 759 11 q 750 100 745 62 q 804 610 755 137 q 860 1142 853 1082 q 875 1199 864 1176 q 895 1228 886 1222 l 904 1233 l 583 1233 z "},"X":{"ha":744,"x_min":-52,"x_max":792,"o":"m 705 93 q 741 31 719 54 q 776 5 762 8 l 790 0 q 768 -14 782 -6 q 707 -32 753 -22 q 614 -32 660 -42 q 528 8 566 -25 q 469 93 489 40 q 369 369 449 151 q 269 93 290 151 q 210 8 248 40 q 125 -32 171 -25 q -52 0 22 -49 q -37 5 -46 2 q -5 31 -28 8 q 32 93 19 54 q 252 688 59 160 q 74 1173 91 1130 q 74 1174 74 1173 q 14 1235 52 1218 l 287 1235 q 369 1009 321 1142 q 451 1235 451 1235 l 724 1235 q 664 1174 685 1219 q 664 1173 664 1173 q 486 688 647 1130 q 705 93 679 160 z "},"Y":{"ha":611,"x_min":-25,"x_max":579,"o":"m 394 1235 l 577 1235 l 577 1145 l 577 398 q 558 227 577 299 q 501 108 539 154 q 417 35 463 62 q 309 -5 370 9 q 179 3 241 -22 q 90 71 117 28 q 49 206 51 134 q 86 326 48 278 q 193 366 125 373 q 259 333 238 361 q 281 264 281 304 q 273 200 281 261 q 268 96 265 139 q 292 54 270 54 q 314 63 304 54 q 329 92 324 73 q 338 130 335 111 q 342 178 341 148 q 343 226 343 208 q 343 275 344 244 q 343 315 343 307 q 343 486 343 387 q 252 429 312 441 q 142 440 191 417 q 59 530 86 461 q 31 730 31 599 l 31 1114 q 17 1179 31 1151 q -11 1216 3 1207 l -25 1225 q 1 1238 -15 1231 q 62 1255 17 1245 q 142 1259 106 1264 q 229 1215 191 1250 q 267 1113 267 1179 q 267 727 267 727 q 313 562 267 582 q 343 566 327 556 q 341 1148 341 1130 q 354 1208 341 1187 q 381 1231 367 1230 l 394 1235 z "},"Z":{"ha":543,"x_min":-40,"x_max":539,"o":"m 471 224 q 505 236 489 227 q 525 253 520 245 l 531 262 l 531 0 l -40 0 q -28 7 -35 2 q -3 36 -20 12 q 22 93 14 60 q 225 1011 45 181 q 20 1011 20 1011 q -15 998 0 1008 q -35 981 -29 989 l -40 972 l -40 1235 l 537 1235 q 483 1174 500 1219 q 483 1173 483 1173 q 279 224 466 1106 q 471 224 469 224 z "},"a":{"ha":583,"x_min":-12,"x_max":585,"o":"m 583 0 q 561 -4 576 -2 q 508 -7 546 -6 q 436 -2 469 -8 q 369 25 403 5 q 318 80 335 46 q 303 47 310 59 q 279 20 296 35 q 233 0 262 5 q 162 0 204 -5 q 38 69 86 8 q 3 236 -11 130 q 318 517 35 486 q 319 563 318 537 q 319 606 319 590 q 319 644 319 623 q 319 679 319 665 q 316 708 318 693 q 313 731 315 722 q 306 748 310 741 q 297 759 302 756 q 284 762 292 762 q 264 754 270 762 q 258 730 258 745 q 260 698 258 715 q 265 661 262 682 q 267 628 269 640 q 236 563 265 590 q 170 535 207 535 q 84 568 119 535 q 49 647 49 600 q 83 741 48 693 q 280 824 153 824 q 475 711 407 824 q 542 420 542 597 l 542 93 q 583 0 542 25 m 245 193 q 275 160 248 164 q 315 194 304 159 q 318 218 318 204 l 318 424 q 299 443 318 440 q 256 400 273 448 q 245 193 233 335 z "},"b":{"ha":568,"x_min":23,"x_max":580,"o":"m 258 0 q 23 0 258 0 q 23 276 23 0 q 23 604 23 437 q 23 877 23 772 q 23 992 23 981 q 36 1053 23 1026 q 68 1093 49 1080 q 106 1116 86 1106 q 137 1127 125 1125 l 151 1130 l 245 1130 q 244 1051 244 1111 q 245 914 244 1032 q 245 793 245 796 q 313 803 270 806 q 394 781 355 801 q 535 588 492 731 q 560 259 579 444 q 538 163 554 205 q 489 81 522 120 q 398 21 457 42 q 258 0 340 0 m 245 693 l 245 148 q 270 94 245 91 q 304 144 293 97 q 307 157 306 150 q 323 433 326 312 q 299 626 321 554 q 245 693 278 698 z "},"c":{"ha":557,"x_min":0,"x_max":574,"o":"m 323 341 q 440 333 373 350 q 531 287 506 315 q 549 159 573 241 q 457 31 526 77 q 292 -11 395 -11 q 292 -11 292 -11 q 290 -11 292 -11 q 0 435 0 -11 q 77 733 0 619 q 298 847 154 847 q 515 741 434 847 q 539 660 540 708 q 515 576 539 613 q 453 519 492 539 q 363 525 414 500 q 325 556 338 535 q 312 602 312 576 q 314 646 312 628 q 323 688 316 664 q 310 764 333 730 q 285 773 298 782 q 258 663 269 759 q 248 418 248 566 q 284 85 248 168 q 302 68 293 63 q 314 83 307 73 q 328 127 321 94 q 336 204 335 159 q 333 273 336 239 q 327 324 330 307 l 323 341 z "},"d":{"ha":568,"x_min":-14,"x_max":543,"o":"m 309 0 q 167 21 227 0 q 76 81 108 42 q 27 163 43 120 q 6 259 11 205 q 29 588 -14 444 q 173 781 73 731 q 252 803 210 801 q 319 793 295 806 q 320 914 319 796 q 321 1051 321 1032 q 287 1130 321 1111 l 415 1130 l 542 1130 q 542 979 542 1119 q 542 638 542 840 q 542 276 542 437 l 542 0 l 309 0 m 319 693 q 266 626 287 698 q 242 433 245 554 q 259 157 239 312 q 292 94 265 105 q 316 119 310 88 q 319 148 319 131 l 319 693 z "},"e":{"ha":597,"x_min":0,"x_max":583,"o":"m 292 835 q 460 775 394 835 q 555 619 526 716 q 583 386 583 522 q 250 378 250 378 q 259 218 253 299 q 265 157 262 182 q 273 107 269 133 q 285 71 278 82 q 302 65 293 60 q 315 79 309 68 q 329 122 321 90 q 336 199 336 154 q 324 335 338 275 q 440 326 373 344 q 532 281 506 309 q 551 155 574 236 q 457 28 528 74 q 292 -14 395 -14 q 292 -14 292 -14 q 292 -14 292 -14 q 0 427 0 -12 q 74 723 0 611 q 292 835 148 835 m 248 440 l 335 444 q 324 679 332 565 q 311 746 321 718 q 285 762 301 775 q 258 660 269 747 q 248 440 247 574 z "},"f":{"ha":423,"x_min":0,"x_max":426,"o":"m 424 1170 q 347 1112 366 1154 q 329 969 329 1069 q 329 841 329 918 l 417 841 l 417 779 l 329 779 q 329 593 329 698 q 329 400 329 489 q 330 232 330 310 q 330 108 330 154 q 330 60 330 62 q 369 0 330 17 l 62 0 q 73 5 66 2 q 90 25 79 9 q 100 60 100 40 l 100 779 l 0 779 l 0 841 l 100 841 l 100 929 q 106 1014 100 975 q 122 1080 113 1052 q 150 1130 131 1108 q 183 1168 168 1153 q 225 1195 198 1184 q 269 1213 252 1207 q 320 1224 287 1219 q 371 1230 353 1228 q 424 1235 389 1231 l 424 1170 z "},"g":{"ha":556,"x_min":-32,"x_max":526,"o":"m 525 824 q 525 156 525 156 q 523 63 525 100 q 516 -28 522 25 q 501 -117 511 -80 q 471 -191 491 -153 q 425 -253 452 -230 q 356 -292 398 -276 q 264 -307 315 -307 q 52 -231 111 -307 q 22 -132 19 -179 q 64 -55 25 -85 q 156 -34 103 -25 q 236 -136 236 -46 q 235 -159 236 -142 q 232 -189 233 -176 q 233 -217 231 -202 q 242 -239 235 -231 q 264 -247 250 -247 q 279 -239 272 -247 q 290 -213 285 -231 q 297 -178 295 -194 q 301 -133 299 -162 q 302 -88 302 -103 q 302 -42 302 -73 q 302 2 302 -15 q 302 24 302 19 q 302 31 302 29 q 235 21 278 19 q 154 42 193 23 q 12 235 56 93 q -11 565 -31 378 q 10 661 -6 619 q 59 742 26 704 q 150 802 91 781 q 292 824 210 824 l 525 824 m 302 131 l 302 676 q 278 730 302 733 q 244 679 255 727 q 242 667 242 673 q 225 390 222 511 q 248 197 227 269 q 302 131 270 125 z "},"h":{"ha":580,"x_min":0,"x_max":580,"o":"m 580 0 l 323 0 q 321 404 321 398 q 319 573 321 514 q 309 667 316 633 q 291 710 302 702 q 259 713 279 718 q 259 2 259 2 l 0 2 q 11 7 5 3 q 27 34 17 11 q 37 91 37 57 q 37 394 37 131 q 37 906 37 657 q 37 1159 37 1154 q 0 1235 35 1219 l 259 1235 q 259 785 259 886 q 390 821 315 835 q 508 742 472 806 q 545 542 543 677 q 545 540 545 540 l 545 93 q 553 34 545 57 q 571 6 562 11 l 580 0 z "},"i":{"ha":312,"x_min":0,"x_max":299,"o":"m 66 1009 q 47 1029 66 1009 q 28 1103 28 1048 q 66 1196 28 1157 q 160 1235 105 1235 q 253 1196 215 1235 q 292 1103 292 1157 q 253 1009 292 1048 q 160 971 215 971 q 66 1009 105 971 m 298 0 q 3 0 298 0 q 14 8 8 3 q 30 33 20 12 q 40 80 40 54 q 40 422 40 113 q 40 748 40 731 q 0 824 40 807 l 262 824 l 262 82 q 272 34 262 54 q 289 6 281 14 l 298 0 z "},"j":{"ha":352,"x_min":-187,"x_max":327,"o":"m 100 1009 q 81 1029 100 1009 q 62 1103 62 1048 q 100 1196 62 1157 q 194 1235 139 1235 q 287 1196 248 1235 q 326 1103 326 1157 q 287 1009 326 1048 q 194 971 248 971 q 100 1009 139 971 m 298 824 q 298 352 298 824 q 297 351 298 352 q 296 350 296 350 l 296 207 q 237 -137 296 -3 q 62 -299 177 -272 q -68 -292 -6 -316 q -156 -224 -130 -267 q -183 -121 -187 -168 q -143 -46 -179 -74 q -52 -26 -106 -19 q 28 -130 28 -40 q 25 -152 28 -136 q 19 -182 22 -168 q 18 -210 17 -196 q 25 -232 19 -224 q 46 -241 32 -241 q 72 -222 63 -241 q 82 -171 80 -204 q 82 -107 83 -139 q 77 -37 80 -76 q 74 22 74 2 q 73 397 74 160 q 73 738 73 633 q 74 759 73 748 q 62 799 71 782 q 43 819 52 815 l 34 824 l 113 824 l 296 824 l 298 824 z "},"k":{"ha":586,"x_min":0,"x_max":588,"o":"m 548 236 q 546 184 548 222 q 543 122 543 145 q 546 69 543 99 q 559 23 549 40 q 586 0 569 6 l 427 0 q 384 20 403 8 q 348 56 366 32 q 323 121 330 79 q 321 222 316 164 q 287 465 340 434 q 261 460 269 475 q 259 452 259 457 l 259 93 q 259 0 259 0 l 0 0 q 11 6 5 2 q 27 34 17 11 q 37 91 37 57 q 37 291 37 131 q 37 597 37 451 q 37 748 37 744 q 0 824 35 809 l 259 824 q 259 735 259 799 l 259 525 q 312 563 301 537 q 321 664 323 590 q 347 779 319 733 q 417 837 375 824 q 505 844 458 850 q 586 813 551 838 q 580 808 585 812 q 564 790 576 804 q 544 761 552 776 q 530 718 535 745 q 526 662 525 691 q 522 600 529 625 q 499 561 515 574 q 472 543 483 548 q 441 532 461 539 q 548 236 552 486 z "},"l":{"ha":360,"x_min":0,"x_max":364,"o":"m 269 1235 q 269 1173 269 1218 q 269 1100 269 1171 q 269 919 269 1029 q 268 688 269 809 q 267 446 267 566 q 267 255 267 326 q 285 110 267 153 q 363 51 304 68 l 363 -14 q 309 -9 327 -11 q 258 -3 292 -8 q 208 8 225 2 q 163 25 190 14 q 121 52 136 37 q 88 91 106 68 q 60 143 69 114 q 45 210 51 171 q 39 295 39 248 l 39 1173 q 0 1235 39 1219 l 269 1235 z "},"m":{"ha":861,"x_min":0,"x_max":860,"o":"m 824 93 q 833 34 824 57 q 850 6 843 11 l 860 0 l 602 0 q 602 540 602 534 q 585 688 602 647 q 523 708 568 728 q 545 542 545 647 q 545 540 545 540 l 545 93 q 545 0 545 0 l 323 0 q 321 540 321 534 q 309 686 321 650 q 259 713 296 722 q 259 2 259 2 l 0 2 q 11 7 5 3 q 27 34 17 11 q 37 91 37 57 q 37 292 37 131 q 37 597 37 452 q 37 748 37 742 q 0 824 35 809 l 202 824 q 259 785 244 824 q 390 821 315 835 q 491 767 455 809 q 573 812 522 795 q 670 821 625 829 q 788 742 752 807 q 824 542 824 677 q 824 540 824 540 l 824 93 z "},"n":{"ha":580,"x_min":0,"x_max":580,"o":"m 580 0 l 323 0 q 321 540 321 534 q 309 686 321 650 q 259 713 296 722 q 259 2 259 2 q 0 2 259 2 q 11 7 5 3 q 27 34 17 11 q 37 91 37 57 q 37 292 37 131 q 37 597 37 452 q 37 748 37 742 q 28 795 37 776 q 9 818 19 813 l 0 824 l 202 824 q 259 785 244 824 q 390 821 315 835 q 508 742 472 806 q 545 542 543 677 q 545 540 545 540 l 545 93 q 553 34 545 57 q 571 6 562 11 l 580 0 z "},"o":{"ha":611,"x_min":0,"x_max":613,"o":"m 306 847 q 418 827 367 847 q 515 761 469 807 q 586 626 560 715 q 613 414 613 537 q 592 231 613 310 q 539 105 571 151 q 465 29 508 59 q 384 -10 423 0 q 306 -20 346 -20 q 194 0 245 -20 q 96 67 142 20 q 25 202 51 114 q 0 414 0 290 q 27 619 0 531 q 100 755 54 707 q 198 825 147 802 q 306 847 248 847 m 273 172 q 280 122 273 172 q 306 73 287 73 q 340 172 326 73 q 353 413 353 272 q 340 654 353 554 q 306 755 326 755 q 273 654 287 755 q 259 413 259 554 q 273 172 259 272 z "},"p":{"ha":566,"x_min":26,"x_max":582,"o":"m 259 824 q 400 802 341 824 q 492 742 458 781 q 540 661 525 704 q 562 565 556 619 q 537 236 580 380 q 395 43 494 93 q 316 22 358 25 q 248 32 273 20 l 248 -302 l 154 -302 q 140 -301 148 -302 q 110 -290 131 -299 q 71 -268 88 -281 q 40 -228 54 -255 q 26 -167 26 -201 q 26 -51 26 -156 q 26 221 26 54 q 26 548 26 387 l 26 824 l 259 824 m 248 133 q 302 198 281 127 q 326 391 323 270 q 309 667 329 512 q 276 728 302 719 q 252 704 258 736 q 248 676 248 693 l 248 133 z "},"q":{"ha":557,"x_min":-29,"x_max":528,"o":"m 293 824 q 153 802 211 824 q 61 742 94 781 q 12 661 28 704 q -9 565 -3 619 q 15 236 -28 380 q 157 43 59 93 q 237 22 194 25 q 304 32 279 20 l 304 -302 l 398 -302 q 413 -301 404 -302 q 443 -290 421 -299 q 481 -268 465 -281 q 512 -228 498 -255 q 526 -167 526 -201 q 526 -51 526 -156 q 526 221 526 54 q 526 548 526 387 l 526 824 l 293 824 m 304 133 q 251 198 272 127 q 227 391 230 270 q 244 667 224 512 q 276 728 250 719 q 301 704 295 736 q 304 676 304 693 l 304 133 z "},"r":{"ha":560,"x_min":0,"x_max":562,"o":"m 560 824 q 560 800 560 815 q 557 745 560 785 q 547 672 554 705 q 525 604 540 639 q 491 552 511 569 l 338 552 q 262 762 338 762 l 262 93 q 272 37 262 60 q 292 6 281 14 l 301 0 l 0 0 q 11 7 5 2 q 29 36 17 12 q 40 93 40 60 q 40 292 40 133 q 40 599 40 452 q 40 750 40 745 q 30 793 40 775 q 9 818 20 812 l 0 824 l 560 824 z "},"s":{"ha":540,"x_min":-8,"x_max":540,"o":"m 380 488 q 390 485 383 488 q 430 471 415 477 q 468 448 444 465 q 505 409 492 431 q 529 348 519 387 q 539 258 539 309 q 481 86 539 151 q 352 9 423 22 q 253 0 299 0 q 250 0 252 0 q 247 0 248 0 q 74 39 134 0 q 12 116 29 66 q 2 212 -6 165 q 40 290 11 259 q 117 326 63 313 q 228 340 171 340 l 228 208 q 264 63 228 63 q 292 119 284 63 q 296 190 295 151 q 273 401 302 356 q 159 446 247 440 q 157 446 159 446 q 154 446 154 446 q 40 496 76 455 q 3 614 5 537 q 25 715 2 671 q 87 781 48 758 q 172 814 127 804 q 270 824 218 824 q 469 755 414 823 q 497 689 494 725 q 485 623 500 653 q 441 573 471 594 q 375 554 412 552 q 284 602 329 554 q 253 762 301 762 q 226 728 231 762 q 221 613 221 694 q 324 500 221 529 q 380 488 347 497 z "},"t":{"ha":332,"x_min":0,"x_max":327,"o":"m 326 731 l 230 731 q 230 264 230 407 q 248 121 230 164 q 326 63 267 79 l 326 -2 q 272 3 290 2 q 221 10 255 5 q 171 21 188 15 q 126 38 153 26 q 83 65 99 49 q 50 103 68 80 q 23 154 32 125 q 8 220 14 182 q 2 304 2 258 l 2 731 l 0 731 l 0 823 l 2 823 l 2 1174 l 0 1235 l 231 1235 q 231 1174 231 1218 q 231 1127 231 1173 q 231 994 231 1082 q 230 823 231 906 l 326 823 l 326 731 z "},"u":{"ha":594,"x_min":0,"x_max":596,"o":"m 34 731 q 0 824 34 807 l 258 824 l 258 176 q 298 79 258 79 q 335 176 335 79 l 335 819 l 335 824 l 594 824 q 584 818 591 823 q 567 790 577 813 q 557 731 557 767 q 557 587 557 691 q 557 394 557 483 q 557 298 557 304 q 484 83 557 165 q 297 0 410 0 q 109 83 184 0 q 34 298 34 167 l 34 731 z "},"v":{"ha":580,"x_min":-25,"x_max":603,"o":"m 281 824 l 602 824 q 591 818 597 823 q 571 789 585 813 q 551 731 557 765 q 493 405 540 673 q 440 99 446 137 q 457 0 426 17 l 244 0 l 181 0 l 103 0 q 107 2 105 0 q 117 9 110 3 q 129 25 125 15 q 137 52 133 35 q 136 93 140 69 q 114 231 134 100 q 72 509 94 361 q 42 707 49 657 q -25 824 25 801 l 171 824 q 167 821 170 823 q 154 811 164 819 q 141 790 145 802 q 133 757 137 778 q 134 708 128 736 q 215 191 142 665 q 310 731 307 713 q 309 785 316 762 q 290 816 301 809 l 281 824 z "},"w":{"ha":1005,"x_min":-20,"x_max":1025,"o":"m 704 824 l 1025 824 q 1014 818 1020 823 q 994 789 1008 813 q 974 731 980 765 q 916 405 963 673 q 863 99 869 137 q 860 36 856 59 q 872 6 864 14 l 880 0 l 667 0 l 603 0 l 525 0 q 530 2 528 0 q 540 9 532 3 q 552 25 548 15 q 559 52 556 35 q 559 93 563 69 q 549 148 557 99 q 529 286 542 198 q 505 441 515 375 q 444 99 454 150 q 442 36 438 59 q 454 6 446 14 l 461 0 l 248 0 l 185 0 l 108 0 q 112 2 110 0 q 122 9 114 3 q 133 25 130 15 q 141 52 137 35 q 140 93 145 69 q 119 231 139 100 q 76 509 99 361 q 46 707 54 657 q -20 824 29 801 l 176 824 q 171 821 174 823 q 159 811 168 819 q 146 790 150 802 q 137 757 142 778 q 139 708 133 736 q 219 191 147 667 q 315 731 312 713 l 333 824 l 444 824 l 539 824 q 557 708 543 804 q 637 191 565 667 q 733 731 730 713 q 731 785 738 762 q 713 816 724 809 l 704 824 z "},"x":{"ha":651,"x_min":-37,"x_max":687,"o":"m 603 242 q 618 71 599 153 q 687 -32 637 -11 q 633 -35 671 -32 q 570 -39 594 -39 q 503 -32 546 -39 q 465 -22 481 -28 q 424 2 448 -15 q 384 42 400 19 q 359 110 369 66 q 352 210 349 153 q 356 253 353 227 q 360 297 358 279 q 362 336 361 315 q 361 372 363 358 q 356 399 360 386 q 343 418 352 412 q 323 424 335 424 q 304 418 312 424 q 292 399 296 412 q 287 372 289 386 q 286 336 285 358 q 289 297 287 315 q 293 253 290 279 q 296 210 296 227 q 262 38 304 97 q 162 -34 221 -22 q 83 -42 110 -42 q 16 -37 56 -42 q -37 -32 -23 -32 q 46 242 48 5 q 58 356 45 309 q 96 427 71 403 q 143 462 122 452 q 194 481 164 472 q 42 654 32 505 q -29 850 49 781 q -37 858 -37 858 q 142 858 116 858 q 192 844 173 852 q 236 819 211 836 q 275 765 261 801 q 293 679 289 730 q 292 640 295 665 q 287 592 289 614 q 286 548 285 569 q 296 514 287 526 q 323 502 306 502 q 350 514 341 502 q 361 548 360 526 q 361 592 363 569 q 357 640 360 614 q 356 679 355 665 q 375 765 361 730 q 414 819 389 801 q 458 844 438 836 q 508 858 477 852 q 687 858 687 858 q 677 850 684 855 q 657 827 671 846 q 631 788 642 809 q 613 731 620 767 q 608 654 605 694 q 455 481 616 505 q 497 468 481 474 q 536 445 512 463 q 574 404 560 427 q 597 340 588 381 q 603 242 606 298 z "},"y":{"ha":620,"x_min":-15,"x_max":588,"o":"m 403 824 l 586 824 q 586 735 586 824 q 586 207 586 735 q 512 -132 586 6 q 318 -299 437 -270 q 188 -291 250 -315 q 99 -224 125 -267 q 73 -121 69 -168 q 113 -46 77 -74 q 202 -26 150 -17 q 282 -128 282 -40 q 279 -152 282 -136 q 275 -182 276 -168 q 273 -210 273 -196 q 280 -232 273 -224 q 301 -241 287 -241 q 323 -231 313 -241 q 339 -202 333 -222 q 347 -164 344 -182 q 352 -115 350 -147 q 353 -67 353 -83 q 353 -19 353 -51 q 352 22 352 14 q 352 77 352 31 q 259 24 321 32 q 151 43 198 15 q 40 387 40 105 l 40 711 q -15 824 39 792 q 10 836 -6 829 q 71 852 26 843 q 151 856 116 861 q 238 813 201 849 q 276 711 276 776 l 276 395 l 276 316 q 323 151 276 170 q 352 156 336 145 q 351 436 352 238 q 350 738 350 634 q 403 824 352 796 z "},"z":{"ha":577,"x_min":0,"x_max":579,"o":"m 511 222 q 571 261 554 228 l 571 -2 l 273 -2 l 144 -2 l 0 -2 q 12 5 5 0 q 36 35 20 11 q 62 91 52 59 q 119 294 68 114 q 205 600 170 474 q 60 600 60 600 q 0 562 17 594 l 0 824 l 315 824 l 427 824 l 579 824 q 525 764 542 809 q 525 762 525 764 q 490 659 517 738 q 420 453 463 580 q 343 222 377 326 q 511 222 511 222 z "}," ":{"ha":924,"x_min":0,"x_max":0,"o":""},"Ё":{"ha":593,"x_min":0,"x_max":594,"o":"m 249 1326 q 239 1316 249 1326 q 199 1306 228 1306 q 149 1326 170 1306 q 128 1377 128 1347 q 149 1428 128 1407 q 199 1449 170 1449 q 249 1428 228 1449 q 270 1377 270 1407 q 249 1326 270 1347 m 444 1326 q 433 1316 444 1326 q 394 1306 423 1306 q 344 1326 364 1306 q 324 1377 324 1347 q 344 1428 324 1407 q 394 1449 364 1449 q 444 1428 423 1449 q 465 1377 465 1407 q 444 1326 465 1347 m 523 270 q 563 168 545 236 q 586 49 580 100 l 594 0 l 264 0 l 148 0 l 142 0 q 0 0 142 0 q 5 2 2 0 q 15 11 8 3 q 27 30 22 19 q 37 63 32 42 q 42 113 42 85 l 42 1148 q 31 1201 42 1179 q 11 1228 20 1222 l 0 1235 l 594 1235 q 523 965 566 1026 l 372 965 q 362 1042 372 997 q 326 1130 352 1088 q 264 1173 299 1173 q 264 1049 264 1162 q 264 811 264 937 q 264 656 264 685 q 326 656 318 656 q 340 658 333 656 q 352 664 347 660 q 362 673 356 667 q 371 683 367 679 q 379 696 375 687 q 384 710 383 705 q 389 725 386 715 q 394 740 392 736 q 397 755 395 744 q 401 767 400 765 l 461 759 q 450 632 449 702 q 461 512 451 562 l 400 505 q 392 532 394 525 q 383 556 390 539 q 370 581 377 574 q 351 595 363 588 q 326 602 340 602 l 264 602 q 264 435 264 568 q 264 188 264 302 q 264 62 264 73 q 326 104 299 62 q 362 192 352 147 q 372 270 372 238 l 523 270 z "},"А":{"ha":802,"x_min":-9,"x_max":804,"o":"m 756 93 q 802 0 767 17 l 614 0 q 548 26 576 0 q 517 91 520 52 q 515 93 517 91 q 485 353 515 102 l 326 353 q 318 296 319 307 q 245 69 295 139 q 106 0 194 0 q 19 43 48 0 q 2 137 -9 86 q 51 211 12 188 q 182 185 128 253 q 188 177 188 177 q 195 180 191 179 q 207 192 199 181 q 218 224 215 204 q 356 1142 253 434 q 321 1235 364 1218 l 653 1235 q 644 1228 650 1233 q 633 1198 639 1224 q 631 1136 627 1173 q 693 624 636 1097 q 756 93 750 151 m 340 443 l 474 443 q 412 948 451 631 q 340 443 363 605 z "},"Б":{"ha":583,"x_min":0,"x_max":597,"o":"m 412 781 q 554 589 511 731 q 577 259 597 446 q 556 163 573 205 q 508 81 540 120 q 416 21 475 42 q 275 0 356 0 l 219 0 l 42 0 l 0 0 q 12 6 5 2 q 30 35 19 11 q 42 93 42 59 q 42 395 42 133 q 42 907 42 657 q 42 1160 42 1156 q 31 1207 42 1188 q 11 1230 20 1225 l 0 1235 l 562 1235 q 560 1215 562 1227 q 551 1168 559 1204 q 532 1101 543 1133 q 499 1031 522 1069 q 449 966 477 992 l 340 966 q 322 1121 340 1069 q 262 1173 304 1173 q 262 1130 262 1164 q 262 1051 262 1111 q 263 914 262 1032 q 264 793 264 796 q 331 803 289 806 q 412 781 373 801 m 324 140 q 342 421 344 296 q 318 622 340 546 q 264 693 296 698 l 264 133 q 289 77 264 76 q 323 128 312 80 q 324 140 324 134 z "},"В":{"ha":582,"x_min":0,"x_max":613,"o":"m 452 710 q 577 259 611 590 q 556 162 571 205 q 507 80 540 119 q 415 21 474 42 q 275 0 356 0 l 0 0 q 12 6 5 2 q 30 35 19 11 q 42 93 42 59 q 42 1144 42 327 q 31 1200 42 1177 q 11 1228 20 1222 l 0 1235 l 270 1235 q 409 1218 353 1235 q 495 1165 465 1201 q 537 1087 525 1130 q 554 981 549 1045 q 533 808 562 878 q 452 710 505 738 m 312 1074 q 284 1139 306 1131 q 269 1125 273 1142 q 264 1086 264 1111 q 264 762 264 781 q 293 779 279 756 q 318 872 307 802 q 312 1074 329 941 m 324 140 q 346 417 349 302 q 319 592 343 531 q 264 647 296 653 l 264 131 q 287 77 264 76 q 323 130 310 80 q 324 140 324 136 z "},"Г":{"ha":463,"x_min":0,"x_max":613,"o":"m 611 1235 q 593 1207 603 1225 q 563 1119 582 1188 q 540 965 543 1049 l 370 965 q 367 1022 370 994 q 355 1088 364 1049 q 322 1150 346 1127 q 262 1173 298 1173 l 262 93 q 301 0 262 22 l 0 0 q 11 7 5 2 q 29 36 17 12 q 40 93 40 60 q 40 394 40 131 q 40 907 40 657 q 40 1160 40 1156 q 30 1204 40 1185 q 9 1228 20 1222 l 0 1235 l 611 1235 z "},"Д":{"ha":693,"x_min":-43,"x_max":694,"o":"m 608 79 l 693 79 l 693 -165 q 471 -165 693 -165 q 462 -92 471 -123 q 441 -44 454 -60 q 415 -17 427 -28 q 395 -3 403 -6 l 386 0 l 278 0 q 267 -1 273 0 q 244 -11 261 -2 q 214 -35 227 -20 q 190 -85 201 -51 q 179 -165 179 -119 l -43 -165 l -43 79 q -27 80 -37 79 q 8 93 -17 82 q 52 125 32 105 q 86 190 71 145 q 102 295 102 235 q 102 547 102 335 q 102 958 102 759 q 102 1160 102 1156 q 93 1204 102 1185 q 74 1228 83 1222 l 63 1235 l 645 1235 q 636 1228 642 1233 q 619 1205 630 1224 q 608 1160 608 1187 q 608 79 608 79 m 241 79 l 386 79 l 386 1165 l 324 1165 l 324 329 q 316 228 324 273 q 295 156 307 182 q 270 111 282 130 q 250 86 258 93 l 241 79 z "},"Е":{"ha":593,"x_min":0,"x_max":594,"o":"m 523 270 q 563 168 545 236 q 586 49 580 100 l 594 0 l 264 0 l 148 0 l 142 0 q 0 0 142 0 q 5 2 2 0 q 15 11 8 3 q 27 30 22 19 q 37 63 32 42 q 42 113 42 85 l 42 1148 q 31 1201 42 1179 q 11 1228 20 1222 l 0 1235 l 594 1235 q 523 965 566 1026 l 372 965 q 362 1042 372 997 q 326 1130 352 1088 q 264 1173 299 1173 q 264 1049 264 1162 q 264 811 264 937 q 264 656 264 685 q 326 656 318 656 q 340 658 333 656 q 352 664 347 660 q 362 673 356 667 q 371 683 367 679 q 379 696 375 687 q 384 710 383 705 q 389 725 386 715 q 394 740 392 736 q 397 755 395 744 q 401 767 400 765 l 461 759 q 450 632 449 702 q 461 512 451 562 l 400 505 q 392 532 394 525 q 383 556 390 539 q 370 581 377 574 q 351 595 363 588 q 326 602 340 602 l 264 602 q 264 435 264 568 q 264 188 264 302 q 264 62 264 73 q 326 104 299 62 q 362 192 352 147 q 372 270 372 238 l 523 270 z "},"Ж":{"ha":980,"x_min":0,"x_max":981,"o":"m 923 164 q 938 67 923 108 q 968 14 952 26 l 981 2 q 973 -2 978 0 q 950 -10 968 -5 q 914 -18 932 -15 q 869 -20 895 -20 q 818 -14 843 -20 q 707 110 730 9 q 690 437 684 210 q 665 571 691 519 q 602 613 639 623 l 602 93 q 612 37 602 60 q 631 8 622 14 l 640 0 l 341 0 q 351 8 344 3 q 368 36 358 12 q 378 93 378 60 l 378 613 q 316 571 343 623 q 292 437 290 519 q 275 110 298 210 q 164 -14 252 9 q 81 -19 117 -23 q 23 -8 45 -15 l 0 2 q 7 6 3 3 q 20 22 11 9 q 37 52 29 35 q 52 98 45 68 q 59 164 59 128 q 59 188 59 171 q 60 333 59 284 q 69 454 62 383 q 91 574 76 526 q 133 654 106 622 q 258 719 179 715 q 378 673 338 724 l 378 704 q 338 727 364 715 q 289 748 312 739 q 238 771 265 756 q 192 803 210 785 q 158 849 174 821 q 143 912 142 877 q 153 1000 144 948 q 175 1054 156 1015 q 198 1110 194 1093 q 144 1081 176 1086 q 84 1087 111 1076 q 43 1129 57 1099 q 42 1201 29 1159 q 91 1257 52 1241 q 177 1265 130 1273 q 282 1201 248 1256 q 315 1031 315 1145 q 378 772 315 858 l 378 1173 q 379 1174 378 1173 q 380 1174 380 1174 q 367 1208 377 1193 q 349 1228 356 1224 l 341 1233 l 640 1233 q 602 1174 608 1218 q 602 1173 602 1174 l 602 772 q 667 1031 667 858 q 700 1201 667 1145 q 804 1265 733 1256 q 890 1257 852 1273 q 940 1201 929 1241 q 938 1129 952 1159 q 897 1087 924 1099 q 836 1081 869 1076 q 782 1110 804 1086 q 806 1054 787 1093 q 829 1000 826 1015 q 839 912 838 948 q 823 849 840 877 q 789 803 807 821 q 744 771 772 785 q 693 748 716 756 q 644 727 670 739 q 602 704 617 715 l 602 673 q 723 719 644 724 q 849 654 802 715 q 890 574 875 622 q 913 454 906 526 q 921 333 920 383 q 923 188 923 284 q 923 164 923 171 z "},"З":{"ha":562,"x_min":-2,"x_max":563,"o":"m 563 438 q 556 300 563 361 q 529 181 549 239 q 477 85 509 123 q 392 23 444 46 q 267 0 340 0 q 145 24 198 0 q 64 85 93 48 q 19 167 35 122 q 0 259 2 213 q 5 345 -2 306 q 26 410 12 384 q 82 458 42 440 q 151 480 122 475 q 228 489 181 485 q 244 491 239 491 q 238 427 241 466 q 230 312 235 389 q 225 208 225 235 q 242 104 228 144 q 272 65 255 65 q 313 285 306 65 q 298 610 319 506 q 191 701 284 684 q 177 702 177 702 l 177 742 q 258 850 228 787 q 296 951 289 912 q 306 1025 304 989 q 300 1139 306 1103 q 273 1174 295 1174 q 242 960 228 1174 q 244 949 244 949 q 151 901 199 901 q 66 935 102 901 q 29 1023 31 969 q 69 1142 26 1077 q 256 1236 134 1235 q 439 1184 363 1238 q 522 1017 515 1130 q 466 860 526 932 q 319 758 406 789 q 394 734 353 756 q 472 674 434 711 q 537 573 511 636 q 563 438 563 511 z "},"И":{"ha":614,"x_min":0,"x_max":616,"o":"m 580 93 q 589 34 580 57 q 606 6 597 11 l 616 0 l 358 0 q 358 552 358 0 l 261 5 l 261 0 l 0 0 q 11 6 5 2 q 27 34 17 11 q 37 93 37 57 q 37 394 37 131 q 37 907 37 657 q 37 1160 37 1156 q 28 1208 37 1190 q 9 1230 19 1227 l 0 1235 l 261 1235 l 261 346 l 358 852 l 358 1233 l 358 1235 l 616 1235 q 606 1228 611 1233 q 590 1198 600 1224 q 580 1136 580 1173 l 580 93 z "},"Й":{"ha":614,"x_min":0,"x_max":616,"o":"m 460 1417 q 454 1405 458 1412 q 434 1381 449 1398 q 403 1351 420 1364 q 360 1326 386 1338 q 306 1315 333 1315 q 254 1325 279 1315 q 211 1350 228 1335 q 181 1378 194 1364 q 160 1403 167 1392 l 154 1412 l 174 1451 q 307 1421 216 1421 q 380 1429 347 1421 q 427 1444 414 1437 l 440 1451 l 460 1417 m 580 93 q 589 34 580 57 q 606 6 597 11 l 616 0 l 358 0 q 358 552 358 0 l 261 5 l 261 0 l 0 0 q 11 6 5 2 q 27 34 17 11 q 37 93 37 57 q 37 394 37 131 q 37 907 37 657 q 37 1160 37 1156 q 28 1208 37 1190 q 9 1230 19 1227 l 0 1235 l 261 1235 l 261 346 l 358 852 l 358 1233 l 358 1235 l 616 1235 q 606 1228 611 1233 q 590 1198 600 1224 q 580 1136 580 1173 l 580 93 z "},"К":{"ha":586,"x_min":0,"x_max":588,"o":"m 548 356 q 546 263 548 323 q 544 167 545 204 q 546 90 543 131 q 559 28 549 49 q 586 0 569 6 q 515 -23 560 -19 q 427 -12 471 -28 q 334 96 355 19 q 321 341 313 173 q 324 481 327 424 q 316 573 321 539 q 300 626 310 608 q 280 648 290 644 q 259 650 270 653 q 259 0 259 0 l 0 0 q 11 6 5 2 q 27 34 17 11 q 37 91 37 57 q 37 394 37 131 q 37 905 37 656 q 37 1159 37 1154 q 0 1235 35 1219 l 259 1235 q 259 755 259 890 q 314 866 301 790 q 321 1009 327 941 q 324 1125 315 1076 q 354 1199 333 1174 q 394 1235 375 1224 q 437 1250 414 1245 q 485 1250 463 1253 q 522 1238 506 1247 q 547 1219 537 1228 q 562 1202 557 1210 l 566 1196 q 550 1186 559 1194 q 527 1130 542 1177 q 534 981 512 1082 q 514 839 548 897 q 412 752 480 781 q 517 644 486 730 q 548 356 548 559 z "},"Л":{"ha":594,"x_min":-43,"x_max":596,"o":"m 560 91 q 570 34 560 57 q 586 6 580 11 q 596 0 591 2 l 338 0 l 338 1165 l 281 1165 l 281 457 q 246 147 281 278 q 142 -17 211 15 q -37 -3 57 -59 q -43 0 -43 0 q -32 16 -39 5 q -8 67 -25 28 q 23 153 9 106 q 48 276 37 199 q 59 438 59 353 q 59 655 59 478 q 59 994 59 832 q 59 1160 59 1156 q 49 1208 59 1190 q 31 1230 40 1225 l 22 1235 l 596 1235 q 586 1228 591 1233 q 570 1198 580 1224 q 560 1136 560 1173 l 560 91 z "},"М":{"ha":944,"x_min":-28,"x_max":946,"o":"m 623 0 q 635 8 628 3 q 653 38 642 14 q 659 93 664 62 q 583 813 657 110 q 502 0 502 0 l 492 0 l 282 0 l 194 813 q 125 116 128 151 q 126 66 122 88 q 137 33 130 45 q 150 13 144 22 q 164 3 157 5 l 168 0 l -28 0 q -22 2 -26 0 q -10 13 -19 5 q 6 33 -2 22 q 21 66 14 45 q 31 116 28 88 q 60 417 35 167 q 108 900 85 668 q 131 1140 131 1133 q 94 1233 137 1216 l 424 1233 q 416 1227 421 1231 q 404 1197 410 1222 q 401 1134 397 1171 q 463 548 463 548 q 522 1140 520 1128 q 483 1233 526 1216 l 813 1233 q 805 1227 810 1231 q 792 1197 799 1222 q 790 1133 785 1171 q 844 623 795 1096 q 900 93 894 151 q 944 0 909 17 l 623 0 z "},"Н":{"ha":593,"x_min":0,"x_max":594,"o":"m 559 93 q 594 0 560 17 l 336 0 l 336 577 l 261 577 l 261 0 l 0 0 q 11 6 5 2 q 27 34 17 11 q 37 93 37 57 q 37 394 37 131 q 37 907 37 657 q 37 1160 37 1156 q 0 1235 37 1222 l 261 1235 l 261 656 l 336 656 l 336 1235 l 594 1235 q 584 1228 590 1233 q 569 1198 579 1224 q 559 1136 559 1173 l 559 93 z "},"О":{"ha":611,"x_min":0,"x_max":613,"o":"m 306 1258 q 397 1245 356 1258 q 478 1191 437 1231 q 548 1084 520 1151 q 594 898 576 1017 q 613 617 613 779 q 601 399 613 497 q 573 235 590 301 q 529 121 556 170 q 478 46 503 73 q 420 2 452 19 q 362 -19 387 -14 q 306 -23 336 -23 q 215 -11 255 -23 q 133 41 176 2 q 63 147 91 80 q 18 334 35 215 q 0 617 0 454 q 19 887 0 770 q 66 1072 37 1003 q 137 1184 96 1140 q 219 1242 179 1227 q 306 1258 259 1258 m 273 231 q 280 151 273 231 q 306 71 287 71 q 340 231 326 71 q 353 617 353 390 q 340 1004 353 844 q 306 1164 326 1164 q 273 1004 287 1164 q 259 617 259 844 q 273 231 259 390 z "},"П":{"ha":593,"x_min":0,"x_max":594,"o":"m 559 93 q 594 0 560 17 l 336 0 l 336 1156 l 261 1156 l 261 5 q 261 0 261 5 l 0 0 q 11 6 5 2 q 27 34 17 11 q 37 93 37 57 q 37 394 37 131 q 37 907 37 657 q 37 1160 37 1156 q 0 1235 37 1222 l 594 1235 q 584 1228 590 1233 q 569 1198 579 1224 q 559 1136 559 1173 l 559 93 z "},"Р":{"ha":577,"x_min":0,"x_max":583,"o":"m 275 1235 q 394 1211 341 1235 q 480 1150 448 1187 q 535 1063 512 1114 q 566 965 557 1012 q 577 866 576 917 q 562 664 582 762 q 496 496 542 566 q 389 417 451 426 q 264 455 310 404 q 263 282 264 452 q 262 93 262 111 q 272 37 262 60 q 290 6 281 14 l 301 0 l 0 0 q 12 6 5 2 q 30 33 19 11 q 42 85 42 56 q 42 587 42 86 q 42 1142 42 1088 q 31 1199 42 1176 q 11 1228 20 1222 l 0 1235 l 275 1235 m 264 528 q 299 546 282 520 q 329 623 316 571 q 346 745 341 676 q 347 901 352 813 q 327 1077 343 989 q 292 1139 318 1130 q 265 1116 273 1147 q 264 1086 264 1103 l 264 528 z "},"С":{"ha":576,"x_min":0,"x_max":579,"o":"m 335 440 q 458 437 390 449 q 551 398 526 424 q 575 326 573 377 q 565 222 577 276 q 525 115 552 168 q 463 32 498 62 q 302 -11 410 -11 q 302 -11 302 -11 q 301 -11 302 -11 q 178 23 231 -11 q 92 114 125 57 q 38 255 59 171 q 8 427 17 338 q 0 625 0 517 q 79 1079 0 914 q 310 1245 159 1245 q 441 1205 394 1245 q 519 1099 489 1165 q 548 978 545 1039 q 530 879 551 918 q 468 823 509 840 q 367 832 427 806 q 332 1005 295 863 q 332 1144 350 1074 q 296 1170 318 1191 q 258 608 258 1131 q 261 412 258 503 q 269 255 264 321 q 282 144 275 190 q 297 79 289 99 q 313 62 306 59 q 325 81 318 65 q 340 134 332 97 q 349 218 347 171 q 349 336 352 281 q 340 417 346 392 l 335 440 z "},"Т":{"ha":515,"x_min":-117,"x_max":631,"o":"m 177 1235 l 630 1235 q 628 1177 630 1213 q 610 1059 627 1140 q 565 932 594 978 l 452 932 q 452 966 452 935 q 451 1009 452 997 q 449 1050 451 1022 q 441 1093 448 1079 q 427 1124 435 1106 q 404 1150 418 1142 q 369 1157 389 1157 l 369 93 q 380 34 369 59 q 407 0 390 9 l 108 0 l 106 0 q 134 34 123 8 q 145 93 145 59 l 145 1157 q 144 1157 144 1157 q 109 1150 123 1157 q 86 1124 94 1142 q 71 1093 77 1106 q 63 1050 65 1079 q 61 1009 62 1022 q 61 966 60 997 q 62 932 62 935 l -52 932 q -117 1235 -114 1037 l -57 1235 l 177 1235 z "},"У":{"ha":611,"x_min":-25,"x_max":579,"o":"m 394 1235 l 577 1235 l 577 1145 l 577 398 q 558 227 577 299 q 501 108 539 154 q 417 35 463 62 q 309 -5 370 9 q 179 3 241 -22 q 90 71 117 28 q 49 206 51 134 q 86 326 48 278 q 193 366 125 373 q 259 333 238 361 q 281 264 281 304 q 273 200 281 261 q 268 96 265 139 q 292 54 270 54 q 314 63 304 54 q 329 92 324 73 q 338 130 335 111 q 342 178 341 148 q 343 226 343 208 q 343 275 344 244 q 343 315 343 307 q 343 486 343 387 q 252 429 312 441 q 142 440 191 417 q 59 530 86 461 q 31 730 31 599 l 31 1114 q 17 1179 31 1151 q -11 1216 3 1207 l -25 1225 q 1 1238 -15 1231 q 62 1255 17 1245 q 142 1259 106 1264 q 229 1215 191 1250 q 267 1113 267 1179 q 267 727 267 727 q 313 562 267 582 q 343 566 327 556 q 341 1148 341 1130 q 354 1208 341 1187 q 381 1231 367 1230 l 394 1235 z "},"Ф":{"ha":895,"x_min":-14,"x_max":909,"o":"m 735 1094 q 870 855 830 1029 q 889 451 909 681 q 824 236 878 323 q 677 131 770 150 q 560 168 611 117 l 560 83 q 599 0 560 22 l 597 0 l 298 0 q 309 8 302 3 q 326 35 315 12 q 336 86 336 57 q 336 170 336 137 q 218 131 285 117 q 71 236 125 150 q 6 451 17 323 q 26 855 -12 681 q 162 1094 65 1029 q 256 1115 207 1122 q 338 1076 306 1108 q 338 1154 338 1131 q 329 1201 338 1181 q 310 1228 319 1221 l 301 1235 l 594 1235 q 585 1228 591 1233 q 569 1201 579 1222 q 560 1154 560 1181 l 560 1077 q 640 1115 591 1108 q 735 1094 690 1122 m 287 332 q 336 292 302 275 q 338 985 336 338 q 284 917 304 1008 q 262 670 265 832 q 262 509 258 606 q 287 332 265 412 m 610 332 q 634 509 630 412 q 634 670 639 606 q 579 988 628 963 q 560 985 569 992 l 560 292 q 610 332 594 276 z "},"Х":{"ha":744,"x_min":-52,"x_max":792,"o":"m 705 93 q 741 31 719 54 q 776 5 762 8 l 790 0 q 768 -14 782 -6 q 707 -32 753 -22 q 614 -32 660 -42 q 528 8 566 -25 q 469 93 489 40 q 369 369 449 151 q 269 93 290 151 q 210 8 248 40 q 125 -32 171 -25 q -52 0 22 -49 q -37 5 -46 2 q -5 31 -28 8 q 32 93 19 54 q 252 688 59 160 q 74 1173 91 1130 q 74 1174 74 1173 q 14 1235 52 1218 l 287 1235 q 369 1009 321 1142 q 451 1235 451 1235 l 724 1235 q 664 1174 685 1219 q 664 1173 664 1173 q 486 688 647 1130 q 705 93 679 160 z "},"Ц":{"ha":654,"x_min":0,"x_max":656,"o":"m 576 80 l 656 80 q 653 59 654 73 q 644 8 651 45 q 627 -60 637 -28 q 598 -130 617 -93 q 552 -191 579 -168 l 491 -191 q 392 0 491 0 l 0 0 q 10 6 5 2 q 25 36 15 11 q 34 99 34 62 l 34 1142 q 0 1235 34 1218 l 258 1235 l 258 79 l 353 79 l 353 1230 l 353 1235 l 614 1235 q 603 1228 610 1233 q 586 1201 597 1224 q 576 1142 576 1177 q 576 80 576 1117 z "},"Ч":{"ha":586,"x_min":0,"x_max":588,"o":"m 23 855 q 29 951 25 886 q 35 1053 34 1015 q 36 1136 37 1091 q 26 1205 35 1181 q 0 1235 17 1230 q 96 1263 26 1258 q 205 1245 165 1269 q 267 1131 256 1213 q 265 894 278 1049 q 262 715 261 789 q 269 594 262 640 q 291 529 276 548 q 329 515 306 509 q 329 1235 329 1235 l 588 1235 q 577 1228 583 1233 q 561 1201 571 1224 q 551 1144 551 1177 q 551 841 551 1103 q 551 329 551 579 q 551 76 551 80 q 560 29 551 48 q 579 5 569 11 l 588 0 l 329 0 q 329 443 329 343 q 198 407 269 404 q 52 519 93 414 q 23 855 11 625 z "},"Ш":{"ha":931,"x_min":0,"x_max":932,"o":"m 894 74 q 932 0 895 12 l 614 0 l 318 0 l 0 0 q 10 6 5 2 q 25 36 15 11 q 34 99 34 62 l 34 1142 q 0 1235 34 1218 l 258 1235 l 258 79 l 353 79 q 353 1235 353 1235 l 576 1235 l 576 79 l 671 79 l 671 1230 l 671 1235 l 932 1235 q 921 1228 927 1233 q 904 1201 915 1224 q 894 1142 894 1177 q 894 840 894 1102 q 894 328 894 577 q 894 74 894 79 z "},"Щ":{"ha":972,"x_min":0,"x_max":974,"o":"m 894 80 l 974 80 q 971 59 972 73 q 964 9 971 46 q 947 -60 957 -28 q 917 -130 937 -93 q 872 -191 897 -168 l 809 -191 q 710 0 809 0 l 0 0 q 10 6 5 2 q 25 36 15 11 q 34 99 34 62 l 34 1142 q 25 1200 34 1177 q 9 1228 17 1222 l 0 1235 l 258 1235 l 258 79 l 353 79 q 352 1235 352 1235 l 576 1235 l 576 79 l 671 79 l 671 1235 l 932 1235 q 921 1228 927 1233 q 904 1201 915 1224 q 894 1142 894 1177 q 894 80 894 944 z "},"Ъ":{"ha":670,"x_min":-145,"x_max":705,"o":"m 497 796 q 665 276 705 736 q 584 76 654 151 q 369 0 514 0 l 94 0 q 106 6 99 2 q 124 35 113 11 q 136 93 136 59 q 136 394 136 131 q 136 907 136 657 q 136 1160 136 1156 q 136 1173 136 1162 q 74 1110 93 1170 q 56 965 56 1049 l -66 965 q -119 1073 -99 1005 q -142 1187 -139 1140 l -145 1235 l 94 1235 l 139 1235 l 358 1235 q 358 775 358 875 q 421 800 378 795 q 497 796 463 806 m 421 184 q 438 448 443 330 q 410 637 432 565 q 358 704 387 708 l 358 90 q 421 184 406 90 z "},"Ы":{"ha":880,"x_min":0,"x_max":881,"o":"m 569 276 q 489 76 559 151 q 275 0 420 0 l 0 0 q 12 6 5 2 q 30 35 19 11 q 42 93 42 59 q 42 394 42 131 q 42 907 42 657 q 42 1160 42 1156 q 31 1207 42 1188 q 11 1230 20 1225 l 0 1235 l 264 1235 q 264 775 264 875 q 325 800 282 795 q 403 796 367 806 q 569 276 610 736 m 326 184 q 343 448 347 330 q 315 637 338 565 q 264 704 292 708 l 264 90 q 326 184 310 90 m 841 93 q 880 0 843 22 l 617 0 l 617 1235 l 880 1235 q 841 1174 847 1219 q 841 1173 841 1173 l 841 93 z "},"Ь":{"ha":576,"x_min":0,"x_max":611,"o":"m 569 276 q 489 76 559 151 q 275 0 420 0 l 0 0 q 12 6 5 2 q 30 35 19 11 q 42 93 42 59 q 42 394 42 131 q 42 907 42 657 q 42 1160 42 1156 q 31 1207 42 1188 q 11 1230 20 1225 l 0 1235 l 304 1235 q 292 1229 299 1233 q 275 1208 285 1225 q 264 1165 264 1190 q 264 956 264 1105 q 264 775 264 807 q 325 800 282 795 q 403 796 367 806 q 569 276 610 736 m 326 184 q 343 448 347 330 q 315 637 338 565 q 264 704 292 708 l 264 90 q 326 184 310 90 z "},"Э":{"ha":569,"x_min":-15,"x_max":571,"o":"m 259 1245 q 490 1079 410 1245 q 569 625 569 914 q 562 427 569 517 q 532 254 554 338 q 478 113 511 170 q 391 23 444 57 q 269 -11 338 -11 q 268 -11 269 -11 q 267 -11 267 -11 q 172 -2 207 -11 q 106 32 137 8 q 8 174 31 90 q 25 335 -15 259 q 84 383 42 369 q 169 381 127 397 q 227 326 211 366 q 232 281 233 295 q 226 225 231 267 q 221 145 221 184 q 256 56 221 59 q 283 113 272 54 q 303 293 295 171 q 312 583 312 415 l 261 583 q 235 576 247 583 q 217 562 224 569 q 203 536 210 554 q 194 512 196 519 q 187 486 191 506 l 125 494 q 137 613 136 543 q 123 741 137 684 l 185 748 q 189 735 187 747 q 192 720 191 724 q 196 706 193 716 q 201 691 199 696 q 208 677 204 687 q 215 664 211 668 q 224 654 219 660 q 234 645 228 648 q 246 640 239 642 q 261 637 253 637 q 312 637 265 637 q 273 1170 310 1133 q 233 1153 245 1198 q 236 1062 222 1113 q 196 889 273 915 q 102 883 139 869 q 47 932 65 898 q 31 1012 29 966 q 51 1100 32 1057 q 128 1206 80 1167 q 259 1245 176 1245 z "},"Ю":{"ha":935,"x_min":0,"x_max":937,"o":"m 631 1261 q 721 1248 682 1261 q 803 1196 761 1236 q 873 1087 846 1156 q 919 899 901 1019 q 937 617 937 779 q 926 397 937 495 q 897 233 915 299 q 853 118 880 167 q 802 42 827 69 q 744 -1 776 15 q 686 -22 711 -17 q 631 -26 660 -26 q 542 -15 580 -26 q 462 34 503 -3 q 394 133 421 71 q 346 308 366 196 q 326 573 327 420 l 262 573 l 262 93 q 301 0 262 22 l 0 0 q 11 7 5 2 q 28 36 17 12 q 39 93 39 60 l 39 1173 q 39 1174 39 1173 q 26 1209 35 1194 q 8 1230 17 1224 l 0 1235 l 301 1235 q 262 1174 269 1219 q 262 1173 262 1173 l 262 662 l 326 662 q 347 914 327 806 q 397 1087 367 1023 q 467 1192 426 1151 q 546 1247 508 1233 q 631 1261 585 1261 m 597 228 q 604 147 597 228 q 630 66 611 66 q 664 228 650 66 q 677 617 677 389 q 664 1007 677 846 q 630 1168 650 1168 q 597 1007 611 1168 q 583 617 583 846 q 597 228 583 389 z "},"Я":{"ha":611,"x_min":0,"x_max":613,"o":"m 571 74 q 591 15 571 35 q 613 0 613 0 l 387 0 l 312 0 q 323 7 316 2 q 340 36 329 12 q 350 93 350 60 q 349 443 350 108 q 292 292 285 404 q 289 96 299 164 q 248 -1 278 28 q 156 -40 218 -29 q 72 -41 111 -49 q 17 -20 32 -32 l 0 -8 q 16 5 6 -3 q 43 46 26 14 q 59 116 60 77 q 69 316 54 242 q 140 429 85 389 q 215 474 173 452 q 77 603 125 492 q 35 866 29 713 q 46 965 37 917 q 78 1063 56 1012 q 133 1150 100 1113 q 218 1211 165 1187 q 338 1235 272 1235 l 613 1235 q 601 1228 608 1233 q 583 1199 594 1222 q 571 1142 571 1176 q 571 582 571 1088 q 571 74 571 76 m 290 1045 q 266 784 262 890 q 294 623 270 677 q 349 582 318 569 l 349 1140 q 312 1118 326 1140 q 290 1045 298 1096 z "},"а":{"ha":583,"x_min":-12,"x_max":585,"o":"m 583 0 q 561 -4 576 -2 q 508 -7 546 -6 q 436 -2 469 -8 q 369 25 403 5 q 318 80 335 46 q 303 47 310 59 q 279 20 296 35 q 233 0 262 5 q 162 0 204 -5 q 38 69 86 8 q 3 236 -11 130 q 318 517 35 486 q 319 563 318 537 q 319 606 319 590 q 319 644 319 623 q 319 679 319 665 q 316 708 318 693 q 313 731 315 722 q 306 748 310 741 q 297 759 302 756 q 284 762 292 762 q 264 754 270 762 q 258 730 258 745 q 260 698 258 715 q 265 661 262 682 q 267 628 269 640 q 236 563 265 590 q 170 535 207 535 q 84 568 119 535 q 49 647 49 600 q 83 741 48 693 q 280 824 153 824 q 475 711 407 824 q 542 420 542 597 l 542 93 q 583 0 542 25 m 245 193 q 275 160 248 164 q 315 194 304 159 q 318 218 318 204 l 318 424 q 299 443 318 440 q 256 400 273 448 q 245 193 233 335 z "},"б":{"ha":579,"x_min":0,"x_max":580,"o":"m 580 233 q 570 130 580 170 q 533 59 560 91 q 453 14 506 28 q 315 0 400 0 l 0 0 q 12 6 5 2 q 30 35 19 11 q 42 93 42 59 q 42 292 42 133 q 42 599 42 452 q 42 750 42 745 q 31 796 42 778 q 11 819 20 815 l 0 824 l 562 824 q 562 785 563 809 q 542 709 560 761 q 491 631 525 657 l 340 631 q 340 639 340 634 q 339 682 340 667 q 335 720 338 698 q 323 752 332 742 q 301 762 315 762 q 279 743 287 762 q 268 677 270 724 q 265 607 265 631 q 264 525 264 583 q 384 543 324 543 q 522 456 465 543 q 580 233 580 369 m 330 150 q 304 444 370 373 q 267 458 281 471 q 264 452 264 455 l 264 148 q 278 96 264 108 q 309 100 292 83 q 330 150 326 116 z "},"в":{"ha":579,"x_min":0,"x_max":580,"o":"m 497 489 q 580 255 580 400 q 578 188 580 215 q 563 121 576 160 q 526 59 549 82 q 457 18 503 35 q 346 0 410 0 l 0 0 q 12 6 5 2 q 30 35 19 11 q 42 93 42 59 q 42 292 42 133 q 42 599 42 452 q 42 750 42 745 q 31 796 42 778 q 11 819 20 815 l 0 824 l 304 824 q 436 795 381 824 q 515 718 491 765 q 535 610 539 671 q 497 489 531 549 m 264 523 q 315 576 299 512 q 307 711 335 651 q 264 745 292 747 q 264 626 264 727 q 264 523 264 525 m 330 150 q 306 432 370 372 q 267 441 281 455 q 264 434 264 438 l 264 148 q 278 96 264 108 q 309 100 292 83 q 330 150 326 116 z "},"г":{"ha":560,"x_min":0,"x_max":562,"o":"m 560 824 q 560 800 560 815 q 557 745 560 785 q 547 672 554 705 q 525 604 540 639 q 491 552 511 569 l 338 552 q 262 762 338 762 l 262 93 q 272 37 262 60 q 292 6 281 14 l 301 0 l 0 0 q 11 7 5 2 q 29 36 17 12 q 40 93 40 60 q 40 292 40 133 q 40 599 40 452 q 40 750 40 745 q 30 793 40 775 q 9 818 20 812 l 0 824 l 560 824 z "},"д":{"ha":613,"x_min":9,"x_max":605,"o":"m 603 454 q 532 113 603 233 q 298 -6 460 -6 q 170 22 224 -6 q 86 92 116 49 q 38 197 56 134 q 15 314 20 259 q 9 437 9 369 q 39 627 9 540 q 135 772 68 713 q 296 830 202 830 q 343 826 316 830 q 340 904 341 880 q 335 978 340 927 q 320 1051 330 1028 q 295 1074 310 1074 q 274 1066 281 1074 q 266 1044 267 1059 q 268 1015 265 1029 q 273 985 270 1002 q 276 961 276 969 q 196 858 276 870 q 106 877 144 849 q 66 954 69 906 q 93 1057 62 1002 q 179 1125 117 1100 q 312 1134 241 1150 q 603 454 603 1074 m 316 88 q 346 329 333 128 q 346 748 360 529 q 313 748 330 761 q 284 701 295 736 q 265 557 272 654 q 267 250 259 460 q 304 69 278 59 q 316 88 310 73 z "},"е":{"ha":597,"x_min":0,"x_max":583,"o":"m 292 835 q 460 775 394 835 q 555 619 526 716 q 583 386 583 522 q 250 378 250 378 q 259 218 253 299 q 265 157 262 182 q 273 107 269 133 q 285 71 278 82 q 302 65 293 60 q 315 79 309 68 q 329 122 321 90 q 336 199 336 154 q 324 335 338 275 q 440 326 373 344 q 532 281 506 309 q 551 155 574 236 q 457 28 528 74 q 292 -14 395 -14 q 292 -14 292 -14 q 292 -14 292 -14 q 0 427 0 -12 q 74 723 0 611 q 292 835 148 835 m 248 440 l 335 444 q 324 679 332 565 q 311 746 321 718 q 285 762 301 775 q 258 660 269 747 q 248 440 247 574 z "},"ж":{"ha":971,"x_min":-34,"x_max":986,"o":"m 903 236 q 904 195 903 227 q 907 150 906 164 q 912 108 907 136 q 925 65 917 80 q 949 31 934 49 q 986 0 965 12 q 860 -22 914 -26 q 769 2 806 -17 q 709 56 731 22 q 677 123 687 90 q 668 187 668 156 q 613 461 668 423 q 588 452 594 468 l 588 165 q 619 0 590 39 l 329 0 q 339 14 333 5 q 354 66 344 23 q 364 167 364 110 l 364 452 q 349 466 364 468 q 295 349 312 460 q 284 187 284 282 q 279 135 284 159 q 263 82 275 111 q 229 34 252 52 q 172 -1 207 15 q 86 -15 137 -17 q -34 0 35 -12 q 3 31 -12 12 q 26 65 19 49 q 39 108 34 80 q 46 150 45 136 q 47 195 46 164 q 48 236 48 227 q 181 532 62 494 q 81 610 111 574 q 40 705 51 645 q 67 814 28 776 q 159 852 106 852 q 202 843 181 852 q 246 816 224 835 q 280 759 269 796 q 287 673 292 722 q 296 583 284 627 q 335 532 307 540 q 364 523 349 529 l 364 727 q 340 824 364 798 l 611 824 q 588 727 588 798 l 588 523 q 617 532 603 529 q 656 583 644 540 q 664 673 668 627 q 671 759 659 722 q 705 816 684 796 q 749 843 727 835 q 792 852 772 852 q 884 814 844 852 q 910 705 924 776 q 869 609 900 645 q 770 532 838 573 q 903 236 890 494 z "},"з":{"ha":535,"x_min":-8,"x_max":537,"o":"m 537 256 q 479 84 537 150 q 350 6 421 19 q 252 -3 299 -3 q 248 -3 250 -3 q 247 -3 247 -3 q 74 35 133 -3 q 12 114 29 65 q 2 211 -6 164 q 40 289 11 259 q 117 326 63 313 q 227 340 170 340 l 227 207 q 262 62 227 62 q 292 116 282 62 q 295 188 293 150 q 273 398 301 353 q 230 427 259 417 q 177 440 201 438 l 153 441 l 153 491 q 253 532 227 498 q 282 614 279 565 q 277 729 282 693 q 250 765 272 765 q 219 603 207 758 q 128 554 174 556 q 62 575 91 554 q 19 626 32 596 q 8 692 5 656 q 34 756 11 728 q 235 827 90 826 q 313 823 276 827 q 389 807 350 819 q 454 775 427 795 q 493 720 480 755 q 500 639 506 685 q 378 511 485 539 q 389 508 381 511 q 428 494 414 500 q 467 469 443 488 q 503 427 491 451 q 526 359 515 403 q 537 256 537 315 z "},"и":{"ha":614,"x_min":0,"x_max":616,"o":"m 580 93 q 616 0 582 17 l 358 0 q 358 509 358 0 l 261 5 q 261 0 261 5 l 0 0 q 11 6 5 2 q 27 34 17 11 q 37 93 37 57 q 37 292 37 133 q 37 599 37 452 q 37 750 37 745 q 28 796 37 778 q 9 819 19 815 l 0 824 l 261 824 l 261 318 l 358 823 l 358 824 l 616 824 q 606 817 611 823 q 590 787 600 812 q 580 725 580 762 l 580 93 z "},"й":{"ha":614,"x_min":0,"x_max":616,"o":"m 580 93 q 616 0 582 17 l 358 0 q 358 509 358 0 l 261 5 q 261 0 261 5 l 0 0 q 11 6 5 2 q 27 34 17 11 q 37 93 37 57 q 37 292 37 133 q 37 599 37 452 q 37 750 37 745 q 28 796 37 778 q 9 819 19 815 l 0 824 l 261 824 l 261 318 l 358 823 l 358 824 l 616 824 q 606 817 611 823 q 590 787 600 812 q 580 725 580 762 l 580 93 m 460 1008 q 454 996 458 1003 q 434 972 449 989 q 403 942 420 955 q 360 918 386 929 q 307 907 335 907 q 254 917 279 907 q 211 941 228 927 q 181 970 194 955 q 162 994 168 985 l 156 1005 l 176 1043 q 307 1014 216 1014 q 380 1021 347 1014 q 427 1035 414 1028 l 440 1043 l 460 1008 z "},"к":{"ha":586,"x_min":0,"x_max":588,"o":"m 548 236 q 546 184 548 222 q 543 122 543 145 q 546 69 543 99 q 559 23 549 40 q 586 0 569 6 l 427 0 q 384 20 403 8 q 348 56 366 32 q 323 121 330 79 q 321 222 316 164 q 287 465 340 434 q 261 460 269 475 q 259 452 259 457 l 259 93 q 259 0 259 0 l 0 0 q 11 6 5 2 q 27 34 17 11 q 37 91 37 57 q 37 291 37 131 q 37 597 37 451 q 37 748 37 744 q 0 824 35 809 l 259 824 q 259 735 259 799 l 259 525 q 312 563 301 537 q 321 664 323 590 q 347 779 319 733 q 417 837 375 824 q 505 844 458 850 q 586 813 551 838 q 580 808 585 812 q 564 790 576 804 q 544 761 552 776 q 530 718 535 745 q 526 662 525 691 q 522 600 529 625 q 499 561 515 574 q 472 543 483 548 q 441 532 461 539 q 548 236 552 486 z "},"л":{"ha":599,"x_min":-39,"x_max":600,"o":"m 565 91 q 573 34 565 57 q 591 6 582 11 l 599 0 l 343 0 l 343 755 l 285 755 l 285 369 q 253 110 285 202 q 147 -17 221 17 q -32 -3 62 -59 q -39 0 -39 0 q -27 7 -34 2 q -3 37 -20 12 q 28 96 14 62 q 52 199 42 131 q 63 352 63 267 q 63 486 63 390 q 63 664 63 582 q 63 750 63 745 q 54 796 63 778 q 35 819 45 815 l 26 824 l 599 824 q 590 818 596 823 q 574 788 583 813 q 565 725 565 762 l 565 91 z "},"м":{"ha":752,"x_min":0,"x_max":753,"o":"m 713 93 q 723 37 713 60 q 742 6 733 14 l 753 0 l 452 0 q 463 7 457 2 q 480 36 469 12 q 491 93 491 60 l 491 605 l 414 0 l 340 0 l 262 605 l 262 93 q 272 37 262 60 q 292 6 281 14 l 301 0 l 0 0 q 11 7 5 2 q 29 36 17 12 q 40 93 40 60 q 40 292 40 133 q 40 599 40 452 q 40 750 40 745 q 0 824 39 804 l 304 824 l 377 247 l 449 824 l 753 824 q 742 816 748 821 q 724 793 735 812 q 713 750 713 775 q 713 599 713 745 q 713 292 713 452 q 713 93 713 133 z "},"н":{"ha":594,"x_min":0,"x_max":596,"o":"m 560 93 q 594 0 560 17 l 336 0 l 336 381 l 261 381 l 261 0 l 0 0 q 11 6 5 2 q 27 34 17 11 q 37 93 37 57 q 37 292 37 133 q 37 599 37 452 q 37 750 37 745 q 0 824 37 812 l 261 824 l 261 460 l 336 460 l 336 824 l 594 824 q 585 817 591 823 q 569 787 579 812 q 560 725 560 762 l 560 93 z "},"о":{"ha":611,"x_min":0,"x_max":613,"o":"m 306 847 q 418 827 367 847 q 515 761 469 807 q 586 626 560 715 q 613 414 613 537 q 592 231 613 310 q 539 105 571 151 q 465 29 508 59 q 384 -10 423 0 q 306 -20 346 -20 q 194 0 245 -20 q 96 67 142 20 q 25 202 51 114 q 0 414 0 290 q 27 619 0 531 q 100 755 54 707 q 198 825 147 802 q 306 847 248 847 m 273 172 q 280 122 273 172 q 306 73 287 73 q 340 172 326 73 q 353 413 353 272 q 340 654 353 554 q 306 755 326 755 q 273 654 287 755 q 259 413 259 554 q 273 172 259 272 z "},"п":{"ha":594,"x_min":0,"x_max":596,"o":"m 560 93 q 594 0 560 17 l 336 0 l 336 744 l 261 744 l 261 5 q 261 0 261 5 l 0 0 q 11 6 5 2 q 27 34 17 11 q 37 93 37 57 q 37 292 37 133 q 37 599 37 452 q 37 750 37 745 q 0 824 37 812 l 594 824 q 585 817 591 823 q 569 787 579 812 q 560 725 560 762 l 560 93 z "},"р":{"ha":566,"x_min":26,"x_max":582,"o":"m 259 824 q 400 802 341 824 q 492 742 458 781 q 540 661 525 704 q 562 565 556 619 q 537 236 580 380 q 395 43 494 93 q 316 22 358 25 q 248 32 273 20 l 248 -302 l 154 -302 q 140 -301 148 -302 q 110 -290 131 -299 q 71 -268 88 -281 q 40 -228 54 -255 q 26 -167 26 -201 q 26 -51 26 -156 q 26 221 26 54 q 26 548 26 387 l 26 824 l 259 824 m 248 133 q 302 198 281 127 q 326 391 323 270 q 309 667 329 512 q 276 728 302 719 q 252 704 258 736 q 248 676 248 693 l 248 133 z "},"с":{"ha":557,"x_min":0,"x_max":574,"o":"m 323 341 q 440 333 373 350 q 531 287 506 315 q 549 159 573 241 q 457 31 526 77 q 292 -11 395 -11 q 292 -11 292 -11 q 290 -11 292 -11 q 0 435 0 -11 q 77 733 0 619 q 298 847 154 847 q 515 741 434 847 q 539 660 540 708 q 515 576 539 613 q 453 519 492 539 q 363 525 414 500 q 325 556 338 535 q 312 602 312 576 q 314 646 312 628 q 323 688 316 664 q 310 764 333 730 q 285 773 298 782 q 258 663 269 759 q 248 418 248 566 q 284 85 248 168 q 302 68 293 63 q 314 83 307 73 q 328 127 321 94 q 336 204 335 159 q 333 273 336 239 q 327 324 330 307 l 323 341 z "},"т":{"ha":627,"x_min":0,"x_max":628,"o":"m 465 824 l 628 824 q 599 552 628 673 l 492 552 q 426 747 492 739 l 426 93 q 437 34 426 59 q 448 15 441 23 q 460 3 455 6 l 465 0 l 463 0 l 164 0 q 191 34 179 8 q 202 93 202 59 l 202 747 q 136 552 136 739 l 29 552 q 8 671 15 603 q 2 782 2 739 l 0 824 l 164 824 l 465 824 z "},"у":{"ha":620,"x_min":-15,"x_max":588,"o":"m 403 824 l 586 824 q 586 735 586 824 q 586 207 586 735 q 512 -132 586 6 q 318 -299 437 -270 q 188 -291 250 -315 q 99 -224 125 -267 q 73 -121 69 -168 q 113 -46 77 -74 q 202 -26 150 -17 q 282 -128 282 -40 q 279 -152 282 -136 q 275 -182 276 -168 q 273 -210 273 -196 q 280 -232 273 -224 q 301 -241 287 -241 q 323 -231 313 -241 q 339 -202 333 -222 q 347 -164 344 -182 q 352 -115 350 -147 q 353 -67 353 -83 q 353 -19 353 -51 q 352 22 352 14 q 352 77 352 31 q 259 24 321 32 q 151 43 198 15 q 40 387 40 105 l 40 711 q -15 824 39 792 q 10 836 -6 829 q 71 852 26 843 q 151 856 116 861 q 238 813 201 849 q 276 711 276 776 l 276 395 l 276 316 q 323 151 276 170 q 352 156 336 145 q 351 436 352 238 q 350 738 350 634 q 403 824 352 796 z "},"ф":{"ha":900,"x_min":-15,"x_max":915,"o":"m 718 816 q 865 615 816 765 q 895 281 914 465 q 830 107 884 177 q 684 22 776 37 q 563 73 614 11 l 563 -304 l 468 -304 q 454 -302 463 -304 q 424 -292 446 -301 q 385 -269 401 -282 q 355 -229 369 -256 q 341 -168 341 -202 q 341 74 341 -156 q 219 22 289 11 q 71 108 127 37 q 5 281 15 179 q 35 615 -14 465 q 184 816 85 765 q 268 826 224 835 q 341 789 312 816 q 341 883 341 855 q 332 929 341 909 q 313 957 323 949 l 304 963 l 597 963 q 588 956 594 961 q 573 930 582 951 q 563 883 563 909 l 563 790 q 635 826 591 816 q 718 816 679 835 m 289 185 q 311 155 296 160 q 341 165 326 150 q 341 715 341 542 q 285 660 307 736 q 264 460 267 590 q 263 329 259 407 q 289 185 267 250 m 614 185 q 640 329 636 250 q 639 460 644 407 q 583 718 633 699 q 563 715 574 721 l 563 164 q 592 155 577 150 q 614 185 606 160 z "},"х":{"ha":651,"x_min":-37,"x_max":687,"o":"m 603 242 q 618 71 599 153 q 687 -32 637 -11 q 633 -35 671 -32 q 570 -39 594 -39 q 503 -32 546 -39 q 465 -22 481 -28 q 424 2 448 -15 q 384 42 400 19 q 359 110 369 66 q 352 210 349 153 q 356 253 353 227 q 360 297 358 279 q 362 336 361 315 q 361 372 363 358 q 356 399 360 386 q 343 418 352 412 q 323 424 335 424 q 304 418 312 424 q 292 399 296 412 q 287 372 289 386 q 286 336 285 358 q 289 297 287 315 q 293 253 290 279 q 296 210 296 227 q 262 38 304 97 q 162 -34 221 -22 q 83 -42 110 -42 q 16 -37 56 -42 q -37 -32 -23 -32 q 46 242 48 5 q 58 356 45 309 q 96 427 71 403 q 143 462 122 452 q 194 481 164 472 q 42 654 32 505 q -29 850 49 781 q -37 858 -37 858 q 142 858 116 858 q 192 844 173 852 q 236 819 211 836 q 275 765 261 801 q 293 679 289 730 q 292 640 295 665 q 287 592 289 614 q 286 548 285 569 q 296 514 287 526 q 323 502 306 502 q 350 514 341 502 q 361 548 360 526 q 361 592 363 569 q 357 640 360 614 q 356 679 355 665 q 375 765 361 730 q 414 819 389 801 q 458 844 438 836 q 508 858 477 852 q 687 858 687 858 q 677 850 684 855 q 657 827 671 846 q 631 788 642 809 q 613 731 620 767 q 608 654 605 694 q 455 481 616 505 q 497 468 481 474 q 536 445 512 463 q 574 404 560 427 q 597 340 588 381 q 603 242 606 298 z "},"ц":{"ha":636,"x_min":0,"x_max":637,"o":"m 557 80 l 637 80 q 634 59 636 73 q 626 9 633 46 q 609 -60 619 -28 q 579 -130 599 -93 q 534 -191 560 -168 l 472 -191 q 373 0 472 0 l 0 0 q 10 7 5 2 q 25 37 15 12 q 35 99 35 62 l 35 731 q 26 789 35 765 q 9 818 17 812 l 0 824 l 258 824 l 258 80 l 335 80 l 335 819 l 335 824 l 596 824 q 585 818 591 823 q 568 790 579 813 q 557 731 557 767 q 557 549 557 693 q 557 245 557 404 q 557 80 557 85 z "},"ч":{"ha":608,"x_min":0,"x_max":610,"o":"m 39 588 q 41 631 39 600 q 44 681 43 662 q 43 728 45 701 q 38 773 42 756 q 25 805 34 790 q 0 824 15 819 l 182 824 q 225 804 207 816 q 262 769 244 792 q 286 703 279 745 q 287 602 293 660 q 323 360 270 390 q 349 364 340 349 q 350 372 350 367 l 350 731 q 350 824 350 824 l 610 824 q 599 818 605 823 q 583 790 593 813 q 573 733 573 767 q 573 533 573 693 q 573 227 573 373 q 573 76 573 80 q 582 29 573 48 q 600 5 591 11 l 610 0 l 350 0 q 350 90 350 25 l 350 299 q 230 281 290 281 q 154 293 187 281 q 93 336 122 306 q 50 431 65 367 q 39 588 35 494 z "},"ш":{"ha":894,"x_min":0,"x_max":895,"o":"m 856 74 q 866 26 856 45 q 884 5 875 8 l 894 0 l 0 0 q 10 5 5 2 q 25 26 15 8 q 34 73 34 45 l 34 731 q 25 789 34 765 q 9 818 17 812 l 0 824 l 258 824 l 258 79 l 333 79 q 335 824 335 824 l 557 824 q 557 79 557 113 l 634 79 l 634 824 l 894 824 q 883 818 889 823 q 867 789 877 813 q 856 731 856 765 q 856 531 856 691 q 856 225 856 370 q 856 74 856 79 z "},"щ":{"ha":934,"x_min":0,"x_max":935,"o":"m 855 80 l 935 80 q 933 59 934 73 q 925 9 932 46 q 908 -60 918 -28 q 878 -130 898 -93 q 833 -190 858 -167 l 770 -190 q 671 2 770 2 l 0 2 q 10 5 5 2 q 25 33 15 9 q 34 94 34 57 l 34 731 q 25 789 34 765 q 9 818 17 812 l 0 824 l 258 824 l 258 80 l 333 80 q 333 824 333 824 l 556 824 q 556 80 556 113 l 633 80 l 633 824 l 894 824 q 883 818 889 823 q 866 790 877 813 q 855 731 855 767 q 855 549 855 693 q 855 245 855 404 q 855 80 855 85 z "},"ъ":{"ha":781,"x_min":0,"x_max":782,"o":"m 586 542 q 725 455 667 542 q 782 233 782 369 q 772 130 782 170 q 735 59 762 91 q 654 14 707 28 q 517 0 600 0 l 202 0 q 214 6 207 2 q 231 35 221 11 q 242 93 242 59 q 242 292 242 133 q 242 599 242 452 q 242 750 242 745 q 242 762 242 752 q 179 583 179 758 l 102 583 q 0 824 9 687 l 466 824 q 466 525 466 625 q 586 542 526 542 m 532 150 q 506 444 573 373 q 469 458 483 471 q 466 452 466 455 l 466 148 q 480 96 466 108 q 510 100 494 83 q 532 150 526 116 z "},"ы":{"ha":880,"x_min":0,"x_max":881,"o":"m 580 233 q 570 130 580 170 q 533 59 560 91 q 453 14 506 28 q 315 0 400 0 l 0 0 q 12 6 5 2 q 30 35 19 11 q 42 93 42 59 q 42 292 42 133 q 42 599 42 452 q 42 750 42 745 q 31 796 42 778 q 11 819 20 815 l 0 824 l 264 824 q 264 748 264 813 l 264 525 q 384 542 324 542 q 522 455 465 542 q 580 233 580 369 m 330 150 q 304 444 370 373 q 267 458 281 471 q 264 452 264 455 l 264 148 q 278 96 264 108 q 309 100 292 83 q 330 150 326 116 m 843 93 q 852 37 843 60 q 872 6 861 14 l 881 0 l 617 0 l 619 824 l 881 824 q 843 764 849 809 q 843 762 843 764 l 843 93 z "},"ь":{"ha":579,"x_min":0,"x_max":580,"o":"m 580 233 q 570 130 580 170 q 533 59 560 91 q 453 14 506 28 q 315 0 400 0 l 0 0 q 12 6 5 2 q 30 35 19 11 q 42 93 42 59 q 42 292 42 133 q 42 599 42 452 q 42 750 42 745 q 31 796 42 778 q 11 819 20 815 l 0 824 l 304 824 q 293 819 299 823 q 275 796 287 815 q 264 748 264 776 l 264 525 q 384 542 324 542 q 522 455 465 542 q 580 233 580 369 m 330 150 q 304 444 370 373 q 267 458 281 471 q 264 452 264 455 l 264 148 q 278 96 264 108 q 309 100 292 83 q 330 150 326 116 z "},"э":{"ha":539,"x_min":-6,"x_max":540,"o":"m 241 832 q 461 720 384 832 q 539 429 539 608 q 508 235 539 330 q 408 69 477 140 q 248 -8 340 -2 q 135 3 193 -9 q 45 39 77 15 q 0 140 -6 74 q 58 229 6 205 q 199 204 110 253 q 198 171 199 199 q 206 108 196 142 q 236 69 216 74 q 274 156 259 66 q 290 390 289 245 l 159 390 l 159 460 l 290 460 q 253 758 289 741 q 228 755 241 764 q 209 727 215 747 q 210 676 204 707 q 214 625 213 651 q 198 577 215 599 q 150 551 182 556 q 69 563 103 546 q 19 610 34 580 q 8 676 3 639 q 39 745 12 713 q 241 832 110 832 z "},"ю":{"ha":906,"x_min":0,"x_max":901,"o":"m 610 852 q 717 831 668 852 q 809 764 765 810 q 877 628 852 718 q 901 414 901 539 q 881 230 901 310 q 832 103 861 150 q 762 27 802 57 q 684 -13 721 -3 q 610 -23 648 -23 q 507 -4 554 -23 q 417 57 460 15 q 349 178 375 99 q 319 369 323 258 l 262 369 l 262 93 q 301 0 262 22 l 0 0 q 11 7 5 2 q 28 36 17 12 q 39 93 39 60 l 39 762 q 39 764 39 762 q 0 824 32 807 l 301 824 q 262 764 269 809 q 262 762 262 762 l 262 460 l 319 460 q 352 644 324 565 q 422 766 380 722 q 512 831 465 810 q 610 852 559 852 m 578 171 q 584 121 578 171 q 610 71 591 71 q 641 171 628 71 q 654 414 654 272 q 641 657 654 557 q 610 758 628 758 q 578 657 591 758 q 565 414 565 557 q 578 171 565 272 z "},"я":{"ha":608,"x_min":0,"x_max":610,"o":"m 566 74 q 586 15 566 35 q 608 0 608 0 l 346 0 q 347 281 346 221 q 312 281 324 289 q 296 254 299 273 q 291 206 292 235 q 292 145 290 177 q 256 11 296 57 q 164 -39 216 -35 q 0 0 82 -45 q 5 4 2 2 q 19 15 9 6 q 36 35 29 23 q 49 66 43 46 q 56 110 56 86 q 69 217 56 179 q 113 290 82 255 q 181 329 133 313 q 59 410 103 344 q 31 596 14 475 q 126 760 45 696 q 333 824 207 824 l 608 824 q 596 817 603 823 q 578 789 590 812 q 566 731 566 765 q 566 377 566 677 q 566 74 566 76 m 278 674 q 302 389 238 452 q 341 378 327 366 q 344 386 344 381 l 344 676 q 330 728 344 716 q 299 725 316 741 q 278 674 282 708 z "},"ѐ":{"ha":0,"x_min":0,"x_max":0,"o":""},"ё":{"ha":582,"x_min":0,"x_max":583,"o":"m 248 922 q 237 912 248 922 q 198 901 227 901 q 147 922 168 901 q 127 973 127 943 q 147 1024 127 1003 q 198 1045 168 1045 q 248 1024 227 1045 q 269 973 269 1003 q 248 922 269 943 m 442 922 q 432 912 442 922 q 392 901 421 901 q 342 922 363 901 q 321 973 321 943 q 342 1024 321 1003 q 392 1045 363 1045 q 442 1024 421 1045 q 463 973 463 1003 q 442 922 463 943 m 292 835 q 460 775 394 835 q 555 619 526 716 q 583 386 583 522 q 250 378 250 378 q 259 218 253 299 q 265 157 262 184 q 274 105 269 130 q 286 69 279 80 q 302 65 293 59 q 315 79 309 68 q 329 122 321 90 q 336 199 336 154 q 324 335 338 275 q 368 332 323 338 q 465 311 414 326 q 532 281 517 296 q 551 155 574 236 q 457 28 528 74 q 292 -14 395 -14 q 292 -14 292 -14 q 292 -14 292 -14 q 0 427 0 -12 q 74 723 0 611 q 292 835 148 835 m 248 440 l 335 444 q 333 531 336 444 q 324 679 329 617 q 311 746 321 718 q 285 762 301 775 q 258 660 269 747 q 248 440 247 574 z "}," ":{"ha":924,"x_min":0,"x_max":0,"o":""},"᠎":{"ha":924,"x_min":0,"x_max":0,"o":""}," ":{"ha":924,"x_min":0,"x_max":0,"o":""}," ":{"ha":924,"x_min":0,"x_max":0,"o":""}," ":{"ha":924,"x_min":0,"x_max":0,"o":""}," ":{"ha":924,"x_min":0,"x_max":0,"o":""}," ":{"ha":924,"x_min":0,"x_max":0,"o":""}," ":{"ha":924,"x_min":0,"x_max":0,"o":""}," ":{"ha":924,"x_min":0,"x_max":0,"o":""}," ":{"ha":924,"x_min":0,"x_max":0,"o":""}," ":{"ha":924,"x_min":0,"x_max":0,"o":""}," ":{"ha":924,"x_min":0,"x_max":0,"o":""}," ":{"ha":924,"x_min":0,"x_max":0,"o":""},"​":{"ha":1389,"x_min":0,"x_max":0,"o":""}," ":{"ha":924,"x_min":0,"x_max":0,"o":""}," ":{"ha":924,"x_min":0,"x_max":0,"o":""},"　":{"ha":924,"x_min":0,"x_max":0,"o":""},"﻿":{"ha":924,"x_min":0,"x_max":0,"o":""}}}
